solid OpenSCAD_Model
  facet normal 0 -1 0
    outer loop
      vertex 0 0 0
      vertex 15.200000002980232 0 0
      vertex 0 0 70
    endloop
  endfacet
  facet normal 0 0 -1
    outer loop
      vertex 0 0 0
      vertex 0 20 0
      vertex 15.200000002980232 0 0
    endloop
  endfacet
  facet normal -1 0 0
    outer loop
      vertex 0 0 0
      vertex 0 0 70
      vertex 0 20 70
    endloop
  endfacet
  facet normal 0 0 1
    outer loop
      vertex 0 0 70
      vertex 15.200000002980232 0 70
      vertex 0 20 70
    endloop
  endfacet
  facet normal -1 0 0
    outer loop
      vertex 0 0 0
      vertex 0 20 70
      vertex 0 20 0
    endloop
  endfacet
  facet normal 0.7961621940659497 0.6050832676087591 0
    outer loop
      vertex 0 20 0
      vertex 0 20 70
      vertex 2 17.368421053147546 2
    endloop
  endfacet
  facet normal 0.7961621940659496 0.6050832676087591 3.6809719197830234e-16
    outer loop
      vertex 0 20 0
      vertex 2 17.368421053147546 2
      vertex 13.68000000268221 2 2
    endloop
  endfacet
  facet normal 0.7961621940659497 0.605083267608759 0
    outer loop
      vertex 0 20 70
      vertex 2 17.368421053147546 68
      vertex 2 17.368421053147546 2
    endloop
  endfacet
  facet normal 0.7961621940659496 0.6050832676087591 -2.8204284289496237e-16
    outer loop
      vertex 0 20 70
      vertex 13.68000000268221 2 68
      vertex 2 17.368421053147546 68
    endloop
  endfacet
  facet normal 0.7961621940659496 0.6050832676087591 -2.828536317401918e-16
    outer loop
      vertex 0 20 0
      vertex 13.68000000268221 2 2
      vertex 15.200000002980232 0 0
    endloop
  endfacet
  facet normal 0.7961621940659498 0.605083267608759 0
    outer loop
      vertex 15.200000002980232 0 0
      vertex 13.68000000268221 2 2
      vertex 13.68000000268221 2 68
    endloop
  endfacet
  facet normal 0 -1 0
    outer loop
      vertex 0 0 70
      vertex 15.200000002980232 0 0
      vertex 15.200000002980232 0 70
    endloop
  endfacet
  facet normal 0.7961621940659496 0.6050832676087591 0
    outer loop
      vertex 0 20 70
      vertex 15.200000002980232 0 70
      vertex 13.68000000268221 2 68
    endloop
  endfacet
  facet normal 0.7961621940659498 0.605083267608759 0
    outer loop
      vertex 15.200000002980232 0 0
      vertex 13.68000000268221 2 68
      vertex 15.200000002980232 0 70
    endloop
  endfacet
  facet normal 1 0 0
    outer loop
      vertex 2 2 2
      vertex 2 17.368421053147546 2
      vertex 2 2 68
    endloop
  endfacet
  facet normal 0 0 1
    outer loop
      vertex 2 2 2
      vertex 13.68000000268221 2 2
      vertex 2 17.368421053147546 2
    endloop
  endfacet
  facet normal 0 1 0
    outer loop
      vertex 2 2 2
      vertex 2 2 68
      vertex 13.68000000268221 2 68
    endloop
  endfacet
  facet normal 0 0 -1
    outer loop
      vertex 2 2 68
      vertex 2 17.368421053147546 68
      vertex 13.68000000268221 2 68
    endloop
  endfacet
  facet normal 1 0 0
    outer loop
      vertex 2 2 68
      vertex 2 17.368421053147546 2
      vertex 2 17.368421053147546 68
    endloop
  endfacet
  facet normal 0 1 0
    outer loop
      vertex 2 2 2
      vertex 13.68000000268221 2 68
      vertex 13.68000000268221 2 2
    endloop
  endfacet
endsolid OpenSCAD_Model
