solid OpenSCAD_Model
  facet normal 1 -0 0
    outer loop
      vertex 177.6 0 65.8
      vertex 177.6 61.6 0
      vertex 177.6 61.6 65.8
    endloop
  endfacet
  facet normal 1 0 0
    outer loop
      vertex 177.6 61.6 0
      vertex 177.6 0 65.8
      vertex 177.6 0 0
    endloop
  endfacet
  facet normal 0 0 1
    outer loop
      vertex 177.6 61.6 65.8
      vertex 91.55 30.8 65.8
      vertex 177.6 0 65.8
    endloop
  endfacet
  facet normal 0 0 1
    outer loop
      vertex 177.6 61.6 65.8
      vertex 91.5467 30.9349 65.8
      vertex 91.55 30.8 65.8
    endloop
  endfacet
  facet normal 0 0 1
    outer loop
      vertex 177.6 61.6 65.8
      vertex 91.5368 31.0695 65.8
      vertex 91.5467 30.9349 65.8
    endloop
  endfacet
  facet normal 0 0 1
    outer loop
      vertex 177.6 61.6 65.8
      vertex 91.5202 31.2035 65.8
      vertex 91.5368 31.0695 65.8
    endloop
  endfacet
  facet normal 0 0 1
    outer loop
      vertex 177.6 61.6 65.8
      vertex 91.4972 31.3365 65.8
      vertex 91.5202 31.2035 65.8
    endloop
  endfacet
  facet normal 0 0 1
    outer loop
      vertex 177.6 61.6 65.8
      vertex 91.4676 31.4682 65.8
      vertex 91.4972 31.3365 65.8
    endloop
  endfacet
  facet normal 0 0 1
    outer loop
      vertex 177.6 61.6 65.8
      vertex 91.4316 31.5983 65.8
      vertex 91.4676 31.4682 65.8
    endloop
  endfacet
  facet normal 0 0 1
    outer loop
      vertex 177.6 61.6 65.8
      vertex 91.3892 31.7264 65.8
      vertex 91.4316 31.5983 65.8
    endloop
  endfacet
  facet normal 0 0 1
    outer loop
      vertex 177.6 61.6 65.8
      vertex 91.3407 31.8524 65.8
      vertex 91.3892 31.7264 65.8
    endloop
  endfacet
  facet normal 0 0 1
    outer loop
      vertex 177.6 61.6 65.8
      vertex 91.286 31.9758 65.8
      vertex 91.3407 31.8524 65.8
    endloop
  endfacet
  facet normal 0 0 1
    outer loop
      vertex 177.6 61.6 65.8
      vertex 91.2253 32.0963 65.8
      vertex 91.286 31.9758 65.8
    endloop
  endfacet
  facet normal 0 0 1
    outer loop
      vertex 177.6 61.6 65.8
      vertex 91.1588 32.2138 65.8
      vertex 91.2253 32.0963 65.8
    endloop
  endfacet
  facet normal 0 0 1
    outer loop
      vertex 177.6 61.6 65.8
      vertex 91.0865 32.3278 65.8
      vertex 91.1588 32.2138 65.8
    endloop
  endfacet
  facet normal 0 0 1
    outer loop
      vertex 177.6 61.6 65.8
      vertex 91.0088 32.4382 65.8
      vertex 91.0865 32.3278 65.8
    endloop
  endfacet
  facet normal 0 0 1
    outer loop
      vertex 177.6 61.6 65.8
      vertex 90.9258 32.5446 65.8
      vertex 91.0088 32.4382 65.8
    endloop
  endfacet
  facet normal 0 0 1
    outer loop
      vertex 177.6 61.6 65.8
      vertex 90.8376 32.6468 65.8
      vertex 90.9258 32.5446 65.8
    endloop
  endfacet
  facet normal 0 0 1
    outer loop
      vertex 177.6 61.6 65.8
      vertex 90.7445 32.7445 65.8
      vertex 90.8376 32.6468 65.8
    endloop
  endfacet
  facet normal 0 0 1
    outer loop
      vertex 177.6 61.6 65.8
      vertex 90.6468 32.8376 65.8
      vertex 90.7445 32.7445 65.8
    endloop
  endfacet
  facet normal 0 0 1
    outer loop
      vertex 177.6 61.6 65.8
      vertex 90.5446 32.9258 65.8
      vertex 90.6468 32.8376 65.8
    endloop
  endfacet
  facet normal 0 0 1
    outer loop
      vertex 177.6 61.6 65.8
      vertex 90.4382 33.0088 65.8
      vertex 90.5446 32.9258 65.8
    endloop
  endfacet
  facet normal 0 0 1
    outer loop
      vertex 177.6 61.6 65.8
      vertex 90.3278 33.0865 65.8
      vertex 90.4382 33.0088 65.8
    endloop
  endfacet
  facet normal 0 0 1
    outer loop
      vertex 177.6 61.6 65.8
      vertex 90.2138 33.1588 65.8
      vertex 90.3278 33.0865 65.8
    endloop
  endfacet
  facet normal 0 0 1
    outer loop
      vertex 177.6 61.6 65.8
      vertex 90.0963 33.2253 65.8
      vertex 90.2138 33.1588 65.8
    endloop
  endfacet
  facet normal 0 0 1
    outer loop
      vertex 177.6 61.6 65.8
      vertex 89.9758 33.286 65.8
      vertex 90.0963 33.2253 65.8
    endloop
  endfacet
  facet normal 0 0 1
    outer loop
      vertex 177.6 61.6 65.8
      vertex 89.8524 33.3407 65.8
      vertex 89.9758 33.286 65.8
    endloop
  endfacet
  facet normal 0 0 1
    outer loop
      vertex 177.6 61.6 65.8
      vertex 89.7264 33.3892 65.8
      vertex 89.8524 33.3407 65.8
    endloop
  endfacet
  facet normal 0 0 1
    outer loop
      vertex 177.6 61.6 65.8
      vertex 89.5983 33.4316 65.8
      vertex 89.7264 33.3892 65.8
    endloop
  endfacet
  facet normal 0 0 1
    outer loop
      vertex 177.6 61.6 65.8
      vertex 89.4682 33.4676 65.8
      vertex 89.5983 33.4316 65.8
    endloop
  endfacet
  facet normal 0 0 1
    outer loop
      vertex 177.6 61.6 65.8
      vertex 89.3365 33.4972 65.8
      vertex 89.4682 33.4676 65.8
    endloop
  endfacet
  facet normal 0 0 1
    outer loop
      vertex 177.6 61.6 65.8
      vertex 89.2035 33.5202 65.8
      vertex 89.3365 33.4972 65.8
    endloop
  endfacet
  facet normal 0 0 1
    outer loop
      vertex 177.6 61.6 65.8
      vertex 89.0695 33.5368 65.8
      vertex 89.2035 33.5202 65.8
    endloop
  endfacet
  facet normal 0 0 1
    outer loop
      vertex 177.6 61.6 65.8
      vertex 88.9349 33.5467 65.8
      vertex 89.0695 33.5368 65.8
    endloop
  endfacet
  facet normal 0 0 1
    outer loop
      vertex 177.6 61.6 65.8
      vertex 88.8 33.55 65.8
      vertex 88.9349 33.5467 65.8
    endloop
  endfacet
  facet normal -0 0 1
    outer loop
      vertex 0 61.6 65.8
      vertex 88.8 33.55 65.8
      vertex 177.6 61.6 65.8
    endloop
  endfacet
  facet normal 0 0 1
    outer loop
      vertex 88.8 33.55 65.8
      vertex 0 61.6 65.8
      vertex 88.6651 33.5467 65.8
    endloop
  endfacet
  facet normal 0 0 1
    outer loop
      vertex 88.6651 33.5467 65.8
      vertex 0 61.6 65.8
      vertex 88.5305 33.5368 65.8
    endloop
  endfacet
  facet normal 0 0 1
    outer loop
      vertex 88.5305 33.5368 65.8
      vertex 0 61.6 65.8
      vertex 88.3965 33.5202 65.8
    endloop
  endfacet
  facet normal 0 0 1
    outer loop
      vertex 88.3965 33.5202 65.8
      vertex 0 61.6 65.8
      vertex 88.2635 33.4972 65.8
    endloop
  endfacet
  facet normal 0 0 1
    outer loop
      vertex 88.2635 33.4972 65.8
      vertex 0 61.6 65.8
      vertex 88.1318 33.4676 65.8
    endloop
  endfacet
  facet normal 0 0 1
    outer loop
      vertex 86.0533 30.9349 65.8
      vertex 0 61.6 65.8
      vertex 86.05 30.8 65.8
    endloop
  endfacet
  facet normal 0 0 1
    outer loop
      vertex 86.0632 31.0695 65.8
      vertex 0 61.6 65.8
      vertex 86.0533 30.9349 65.8
    endloop
  endfacet
  facet normal 0 0 1
    outer loop
      vertex 86.0798 31.2035 65.8
      vertex 0 61.6 65.8
      vertex 86.0632 31.0695 65.8
    endloop
  endfacet
  facet normal 0 0 1
    outer loop
      vertex 86.1028 31.3365 65.8
      vertex 0 61.6 65.8
      vertex 86.0798 31.2035 65.8
    endloop
  endfacet
  facet normal 0 0 1
    outer loop
      vertex 86.1324 31.4682 65.8
      vertex 0 61.6 65.8
      vertex 86.1028 31.3365 65.8
    endloop
  endfacet
  facet normal 0 0 1
    outer loop
      vertex 86.1684 31.5983 65.8
      vertex 0 61.6 65.8
      vertex 86.1324 31.4682 65.8
    endloop
  endfacet
  facet normal 0 0 1
    outer loop
      vertex 86.2108 31.7264 65.8
      vertex 0 61.6 65.8
      vertex 86.1684 31.5983 65.8
    endloop
  endfacet
  facet normal 0 0 1
    outer loop
      vertex 86.2593 31.8524 65.8
      vertex 0 61.6 65.8
      vertex 86.2108 31.7264 65.8
    endloop
  endfacet
  facet normal 0 0 1
    outer loop
      vertex 86.314 31.9758 65.8
      vertex 0 61.6 65.8
      vertex 86.2593 31.8524 65.8
    endloop
  endfacet
  facet normal 0 0 1
    outer loop
      vertex 86.3747 32.0963 65.8
      vertex 0 61.6 65.8
      vertex 86.314 31.9758 65.8
    endloop
  endfacet
  facet normal 0 0 1
    outer loop
      vertex 86.4412 32.2138 65.8
      vertex 0 61.6 65.8
      vertex 86.3747 32.0963 65.8
    endloop
  endfacet
  facet normal 0 0 1
    outer loop
      vertex 86.5135 32.3278 65.8
      vertex 0 61.6 65.8
      vertex 86.4412 32.2138 65.8
    endloop
  endfacet
  facet normal 0 0 1
    outer loop
      vertex 86.5912 32.4382 65.8
      vertex 0 61.6 65.8
      vertex 86.5135 32.3278 65.8
    endloop
  endfacet
  facet normal 0 0 1
    outer loop
      vertex 86.6742 32.5446 65.8
      vertex 0 61.6 65.8
      vertex 86.5912 32.4382 65.8
    endloop
  endfacet
  facet normal 0 0 1
    outer loop
      vertex 86.7624 32.6468 65.8
      vertex 0 61.6 65.8
      vertex 86.6742 32.5446 65.8
    endloop
  endfacet
  facet normal 0 0 1
    outer loop
      vertex 86.8555 32.7445 65.8
      vertex 0 61.6 65.8
      vertex 86.7624 32.6468 65.8
    endloop
  endfacet
  facet normal 0 0 1
    outer loop
      vertex 86.9532 32.8376 65.8
      vertex 0 61.6 65.8
      vertex 86.8555 32.7445 65.8
    endloop
  endfacet
  facet normal 0 0 1
    outer loop
      vertex 87.0554 32.9258 65.8
      vertex 0 61.6 65.8
      vertex 86.9532 32.8376 65.8
    endloop
  endfacet
  facet normal 0 0 1
    outer loop
      vertex 87.1618 33.0088 65.8
      vertex 0 61.6 65.8
      vertex 87.0554 32.9258 65.8
    endloop
  endfacet
  facet normal 0 0 1
    outer loop
      vertex 87.2722 33.0865 65.8
      vertex 0 61.6 65.8
      vertex 87.1618 33.0088 65.8
    endloop
  endfacet
  facet normal 0 0 1
    outer loop
      vertex 87.3862 33.1588 65.8
      vertex 0 61.6 65.8
      vertex 87.2722 33.0865 65.8
    endloop
  endfacet
  facet normal 0 0 1
    outer loop
      vertex 87.5037 33.2253 65.8
      vertex 0 61.6 65.8
      vertex 87.3862 33.1588 65.8
    endloop
  endfacet
  facet normal 0 0 1
    outer loop
      vertex 87.6242 33.286 65.8
      vertex 0 61.6 65.8
      vertex 87.5037 33.2253 65.8
    endloop
  endfacet
  facet normal 0 0 1
    outer loop
      vertex 87.7476 33.3407 65.8
      vertex 0 61.6 65.8
      vertex 87.6242 33.286 65.8
    endloop
  endfacet
  facet normal 0 0 1
    outer loop
      vertex 87.8736 33.3892 65.8
      vertex 0 61.6 65.8
      vertex 87.7476 33.3407 65.8
    endloop
  endfacet
  facet normal 0 0 1
    outer loop
      vertex 88.0017 33.4316 65.8
      vertex 0 61.6 65.8
      vertex 87.8736 33.3892 65.8
    endloop
  endfacet
  facet normal 0 0 1
    outer loop
      vertex 88.1318 33.4676 65.8
      vertex 0 61.6 65.8
      vertex 88.0017 33.4316 65.8
    endloop
  endfacet
  facet normal -0 0 1
    outer loop
      vertex 91.5467 30.6651 65.8
      vertex 177.6 0 65.8
      vertex 91.55 30.8 65.8
    endloop
  endfacet
  facet normal -0 0 1
    outer loop
      vertex 91.5368 30.5305 65.8
      vertex 177.6 0 65.8
      vertex 91.5467 30.6651 65.8
    endloop
  endfacet
  facet normal -0 0 1
    outer loop
      vertex 91.5202 30.3965 65.8
      vertex 177.6 0 65.8
      vertex 91.5368 30.5305 65.8
    endloop
  endfacet
  facet normal -0 0 1
    outer loop
      vertex 91.4972 30.2635 65.8
      vertex 177.6 0 65.8
      vertex 91.5202 30.3965 65.8
    endloop
  endfacet
  facet normal -0 0 1
    outer loop
      vertex 91.4676 30.1318 65.8
      vertex 177.6 0 65.8
      vertex 91.4972 30.2635 65.8
    endloop
  endfacet
  facet normal -0 0 1
    outer loop
      vertex 91.4316 30.0017 65.8
      vertex 177.6 0 65.8
      vertex 91.4676 30.1318 65.8
    endloop
  endfacet
  facet normal -0 0 1
    outer loop
      vertex 91.3892 29.8736 65.8
      vertex 177.6 0 65.8
      vertex 91.4316 30.0017 65.8
    endloop
  endfacet
  facet normal -0 0 1
    outer loop
      vertex 91.3407 29.7476 65.8
      vertex 177.6 0 65.8
      vertex 91.3892 29.8736 65.8
    endloop
  endfacet
  facet normal -0 0 1
    outer loop
      vertex 91.286 29.6242 65.8
      vertex 177.6 0 65.8
      vertex 91.3407 29.7476 65.8
    endloop
  endfacet
  facet normal -0 0 1
    outer loop
      vertex 91.2253 29.5037 65.8
      vertex 177.6 0 65.8
      vertex 91.286 29.6242 65.8
    endloop
  endfacet
  facet normal -0 0 1
    outer loop
      vertex 91.1588 29.3862 65.8
      vertex 177.6 0 65.8
      vertex 91.2253 29.5037 65.8
    endloop
  endfacet
  facet normal -0 0 1
    outer loop
      vertex 91.0865 29.2722 65.8
      vertex 177.6 0 65.8
      vertex 91.1588 29.3862 65.8
    endloop
  endfacet
  facet normal -0 0 1
    outer loop
      vertex 91.0088 29.1618 65.8
      vertex 177.6 0 65.8
      vertex 91.0865 29.2722 65.8
    endloop
  endfacet
  facet normal -0 0 1
    outer loop
      vertex 90.9258 29.0554 65.8
      vertex 177.6 0 65.8
      vertex 91.0088 29.1618 65.8
    endloop
  endfacet
  facet normal -0 0 1
    outer loop
      vertex 90.8376 28.9532 65.8
      vertex 177.6 0 65.8
      vertex 90.9258 29.0554 65.8
    endloop
  endfacet
  facet normal -0 0 1
    outer loop
      vertex 90.7445 28.8555 65.8
      vertex 177.6 0 65.8
      vertex 90.8376 28.9532 65.8
    endloop
  endfacet
  facet normal -0 0 1
    outer loop
      vertex 90.6468 28.7624 65.8
      vertex 177.6 0 65.8
      vertex 90.7445 28.8555 65.8
    endloop
  endfacet
  facet normal -0 0 1
    outer loop
      vertex 90.5446 28.6742 65.8
      vertex 177.6 0 65.8
      vertex 90.6468 28.7624 65.8
    endloop
  endfacet
  facet normal -0 0 1
    outer loop
      vertex 90.4382 28.5912 65.8
      vertex 177.6 0 65.8
      vertex 90.5446 28.6742 65.8
    endloop
  endfacet
  facet normal -0 0 1
    outer loop
      vertex 90.3278 28.5135 65.8
      vertex 177.6 0 65.8
      vertex 90.4382 28.5912 65.8
    endloop
  endfacet
  facet normal -0 0 1
    outer loop
      vertex 90.2138 28.4412 65.8
      vertex 177.6 0 65.8
      vertex 90.3278 28.5135 65.8
    endloop
  endfacet
  facet normal -0 0 1
    outer loop
      vertex 90.0963 28.3747 65.8
      vertex 177.6 0 65.8
      vertex 90.2138 28.4412 65.8
    endloop
  endfacet
  facet normal -0 0 1
    outer loop
      vertex 89.9758 28.314 65.8
      vertex 177.6 0 65.8
      vertex 90.0963 28.3747 65.8
    endloop
  endfacet
  facet normal -0 0 1
    outer loop
      vertex 89.8524 28.2593 65.8
      vertex 177.6 0 65.8
      vertex 89.9758 28.314 65.8
    endloop
  endfacet
  facet normal -0 0 1
    outer loop
      vertex 89.7264 28.2108 65.8
      vertex 177.6 0 65.8
      vertex 89.8524 28.2593 65.8
    endloop
  endfacet
  facet normal -0 0 1
    outer loop
      vertex 89.5983 28.1684 65.8
      vertex 177.6 0 65.8
      vertex 89.7264 28.2108 65.8
    endloop
  endfacet
  facet normal -0 0 1
    outer loop
      vertex 89.4682 28.1324 65.8
      vertex 177.6 0 65.8
      vertex 89.5983 28.1684 65.8
    endloop
  endfacet
  facet normal -0 0 1
    outer loop
      vertex 89.3365 28.1028 65.8
      vertex 177.6 0 65.8
      vertex 89.4682 28.1324 65.8
    endloop
  endfacet
  facet normal -0 0 1
    outer loop
      vertex 89.2035 28.0798 65.8
      vertex 177.6 0 65.8
      vertex 89.3365 28.1028 65.8
    endloop
  endfacet
  facet normal -0 0 1
    outer loop
      vertex 89.0695 28.0632 65.8
      vertex 177.6 0 65.8
      vertex 89.2035 28.0798 65.8
    endloop
  endfacet
  facet normal -0 0 1
    outer loop
      vertex 88.9349 28.0533 65.8
      vertex 177.6 0 65.8
      vertex 89.0695 28.0632 65.8
    endloop
  endfacet
  facet normal -0 0 1
    outer loop
      vertex 88.8 28.05 65.8
      vertex 177.6 0 65.8
      vertex 88.9349 28.0533 65.8
    endloop
  endfacet
  facet normal 0 0 1
    outer loop
      vertex 0 0 65.8
      vertex 88.8 28.05 65.8
      vertex 88.6651 28.0533 65.8
    endloop
  endfacet
  facet normal 0 0 1
    outer loop
      vertex 0 0 65.8
      vertex 88.6651 28.0533 65.8
      vertex 88.5305 28.0632 65.8
    endloop
  endfacet
  facet normal 0 0 1
    outer loop
      vertex 0 0 65.8
      vertex 88.5305 28.0632 65.8
      vertex 88.3965 28.0798 65.8
    endloop
  endfacet
  facet normal 0 0 1
    outer loop
      vertex 0 0 65.8
      vertex 88.3965 28.0798 65.8
      vertex 88.2635 28.1028 65.8
    endloop
  endfacet
  facet normal 0 0 1
    outer loop
      vertex 0 0 65.8
      vertex 88.2635 28.1028 65.8
      vertex 88.1318 28.1324 65.8
    endloop
  endfacet
  facet normal 0 0 1
    outer loop
      vertex 0 0 65.8
      vertex 88.1318 28.1324 65.8
      vertex 88.0017 28.1684 65.8
    endloop
  endfacet
  facet normal 0 0 1
    outer loop
      vertex 0 0 65.8
      vertex 86.05 30.8 65.8
      vertex 0 61.6 65.8
    endloop
  endfacet
  facet normal 0 0 1
    outer loop
      vertex 86.05 30.8 65.8
      vertex 0 0 65.8
      vertex 86.0533 30.6651 65.8
    endloop
  endfacet
  facet normal 0 0 1
    outer loop
      vertex 86.0533 30.6651 65.8
      vertex 0 0 65.8
      vertex 86.0632 30.5305 65.8
    endloop
  endfacet
  facet normal 0 0 1
    outer loop
      vertex 86.0632 30.5305 65.8
      vertex 0 0 65.8
      vertex 86.0798 30.3965 65.8
    endloop
  endfacet
  facet normal 0 0 1
    outer loop
      vertex 86.0798 30.3965 65.8
      vertex 0 0 65.8
      vertex 86.1028 30.2635 65.8
    endloop
  endfacet
  facet normal 0 0 1
    outer loop
      vertex 86.1028 30.2635 65.8
      vertex 0 0 65.8
      vertex 86.1324 30.1318 65.8
    endloop
  endfacet
  facet normal 0 0 1
    outer loop
      vertex 86.1324 30.1318 65.8
      vertex 0 0 65.8
      vertex 86.1684 30.0017 65.8
    endloop
  endfacet
  facet normal 0 0 1
    outer loop
      vertex 86.1684 30.0017 65.8
      vertex 0 0 65.8
      vertex 86.2108 29.8736 65.8
    endloop
  endfacet
  facet normal 0 0 1
    outer loop
      vertex 86.2108 29.8736 65.8
      vertex 0 0 65.8
      vertex 86.2593 29.7476 65.8
    endloop
  endfacet
  facet normal 0 0 1
    outer loop
      vertex 86.2593 29.7476 65.8
      vertex 0 0 65.8
      vertex 86.314 29.6242 65.8
    endloop
  endfacet
  facet normal 0 0 1
    outer loop
      vertex 86.314 29.6242 65.8
      vertex 0 0 65.8
      vertex 86.3747 29.5037 65.8
    endloop
  endfacet
  facet normal 0 0 1
    outer loop
      vertex 86.3747 29.5037 65.8
      vertex 0 0 65.8
      vertex 86.4412 29.3862 65.8
    endloop
  endfacet
  facet normal 0 0 1
    outer loop
      vertex 86.4412 29.3862 65.8
      vertex 0 0 65.8
      vertex 86.5135 29.2722 65.8
    endloop
  endfacet
  facet normal 0 0 1
    outer loop
      vertex 86.5135 29.2722 65.8
      vertex 0 0 65.8
      vertex 86.5912 29.1618 65.8
    endloop
  endfacet
  facet normal 0 0 1
    outer loop
      vertex 86.5912 29.1618 65.8
      vertex 0 0 65.8
      vertex 86.6742 29.0554 65.8
    endloop
  endfacet
  facet normal 0 0 1
    outer loop
      vertex 86.6742 29.0554 65.8
      vertex 0 0 65.8
      vertex 86.7624 28.9532 65.8
    endloop
  endfacet
  facet normal 0 0 1
    outer loop
      vertex 86.7624 28.9532 65.8
      vertex 0 0 65.8
      vertex 86.8555 28.8555 65.8
    endloop
  endfacet
  facet normal 0 0 1
    outer loop
      vertex 86.8555 28.8555 65.8
      vertex 0 0 65.8
      vertex 86.9532 28.7624 65.8
    endloop
  endfacet
  facet normal 0 0 1
    outer loop
      vertex 86.9532 28.7624 65.8
      vertex 0 0 65.8
      vertex 87.0554 28.6742 65.8
    endloop
  endfacet
  facet normal 0 0 1
    outer loop
      vertex 87.0554 28.6742 65.8
      vertex 0 0 65.8
      vertex 87.1618 28.5912 65.8
    endloop
  endfacet
  facet normal 0 0 1
    outer loop
      vertex 87.1618 28.5912 65.8
      vertex 0 0 65.8
      vertex 87.2722 28.5135 65.8
    endloop
  endfacet
  facet normal 0 0 1
    outer loop
      vertex 87.2722 28.5135 65.8
      vertex 0 0 65.8
      vertex 87.3862 28.4412 65.8
    endloop
  endfacet
  facet normal 0 0 1
    outer loop
      vertex 87.3862 28.4412 65.8
      vertex 0 0 65.8
      vertex 87.5037 28.3747 65.8
    endloop
  endfacet
  facet normal 0 0 1
    outer loop
      vertex 87.5037 28.3747 65.8
      vertex 0 0 65.8
      vertex 87.6242 28.314 65.8
    endloop
  endfacet
  facet normal 0 0 1
    outer loop
      vertex 87.6242 28.314 65.8
      vertex 0 0 65.8
      vertex 87.7476 28.2593 65.8
    endloop
  endfacet
  facet normal 0 0 1
    outer loop
      vertex 88.8 28.05 65.8
      vertex 0 0 65.8
      vertex 177.6 0 65.8
    endloop
  endfacet
  facet normal 0 0 1
    outer loop
      vertex 87.8736 28.2108 65.8
      vertex 0 0 65.8
      vertex 88.0017 28.1684 65.8
    endloop
  endfacet
  facet normal 0 0 1
    outer loop
      vertex 87.7476 28.2593 65.8
      vertex 0 0 65.8
      vertex 87.8736 28.2108 65.8
    endloop
  endfacet
  facet normal 0 0 -1
    outer loop
      vertex 2.8 38.8 0
      vertex 0 38.8 0
      vertex 2.8 58.8 0
    endloop
  endfacet
  facet normal 0 0 -1
    outer loop
      vertex 177.6 0 0
      vertex 174.8 2.8 0
      vertex 177.6 61.6 0
    endloop
  endfacet
  facet normal 0 0 -1
    outer loop
      vertex 177.6 0 0
      vertex 2.8 2.8 0
      vertex 174.8 2.8 0
    endloop
  endfacet
  facet normal 0 0 -1
    outer loop
      vertex 0 0 0
      vertex 2.8 2.8 0
      vertex 177.6 0 0
    endloop
  endfacet
  facet normal 0 0 -1
    outer loop
      vertex 0 22.8 0
      vertex 2.8 2.8 0
      vertex 0 0 0
    endloop
  endfacet
  facet normal 0 0 -1
    outer loop
      vertex 2.8 2.8 0
      vertex 0 22.8 0
      vertex 2.8 22.8 0
    endloop
  endfacet
  facet normal 0 0 -1
    outer loop
      vertex 174.8 58.8 0
      vertex 177.6 61.6 0
      vertex 174.8 2.8 0
    endloop
  endfacet
  facet normal 0 0 -1
    outer loop
      vertex 2.8 58.8 0
      vertex 177.6 61.6 0
      vertex 174.8 58.8 0
    endloop
  endfacet
  facet normal 0 0 -1
    outer loop
      vertex 2.8 58.8 0
      vertex 0 61.6 0
      vertex 177.6 61.6 0
    endloop
  endfacet
  facet normal 0 0 -1
    outer loop
      vertex 0 61.6 0
      vertex 2.8 58.8 0
      vertex 0 38.8 0
    endloop
  endfacet
  facet normal -1 0 0
    outer loop
      vertex 0 22.8 0
      vertex 0 0 0
      vertex 0 22.8 32
    endloop
  endfacet
  facet normal -1 0 0
    outer loop
      vertex 0 38.8 32
      vertex 0 61.6 0
      vertex 0 38.8 0
    endloop
  endfacet
  facet normal -1 0 0
    outer loop
      vertex 0 61.6 0
      vertex 0 38.8 32
      vertex 0 61.6 65.8
    endloop
  endfacet
  facet normal -1 0 0
    outer loop
      vertex 0 22.8 32
      vertex 0 61.6 65.8
      vertex 0 38.8 32
    endloop
  endfacet
  facet normal -1 0 0
    outer loop
      vertex 0 22.8 32
      vertex 0 0 65.8
      vertex 0 61.6 65.8
    endloop
  endfacet
  facet normal -1 0 0
    outer loop
      vertex 0 0 65.8
      vertex 0 22.8 32
      vertex 0 0 0
    endloop
  endfacet
  facet normal 0 1 -0
    outer loop
      vertex 177.6 61.6 0
      vertex 0 61.6 65.8
      vertex 177.6 61.6 65.8
    endloop
  endfacet
  facet normal 0 1 0
    outer loop
      vertex 0 61.6 65.8
      vertex 177.6 61.6 0
      vertex 0 61.6 0
    endloop
  endfacet
  facet normal 0 -1 0
    outer loop
      vertex 0 0 0
      vertex 177.6 0 65.8
      vertex 0 0 65.8
    endloop
  endfacet
  facet normal 0 -1 -0
    outer loop
      vertex 177.6 0 65.8
      vertex 0 0 0
      vertex 177.6 0 0
    endloop
  endfacet
  facet normal -1 0 0
    outer loop
      vertex 174.8 2.8 0
      vertex 174.8 58.8 63
      vertex 174.8 58.8 0
    endloop
  endfacet
  facet normal -1 -0 0
    outer loop
      vertex 174.8 58.8 63
      vertex 174.8 2.8 0
      vertex 174.8 2.8 63
    endloop
  endfacet
  facet normal 0 0 -1
    outer loop
      vertex 174.8 2.8 63
      vertex 91.55 30.8 63
      vertex 174.8 58.8 63
    endloop
  endfacet
  facet normal 0 0 -1
    outer loop
      vertex 174.8 2.8 63
      vertex 91.5467 30.6651 63
      vertex 91.55 30.8 63
    endloop
  endfacet
  facet normal 0 0 -1
    outer loop
      vertex 174.8 2.8 63
      vertex 91.5368 30.5305 63
      vertex 91.5467 30.6651 63
    endloop
  endfacet
  facet normal 0 0 -1
    outer loop
      vertex 174.8 2.8 63
      vertex 91.5202 30.3965 63
      vertex 91.5368 30.5305 63
    endloop
  endfacet
  facet normal 0 0 -1
    outer loop
      vertex 174.8 2.8 63
      vertex 91.4972 30.2635 63
      vertex 91.5202 30.3965 63
    endloop
  endfacet
  facet normal 0 0 -1
    outer loop
      vertex 174.8 2.8 63
      vertex 91.4676 30.1318 63
      vertex 91.4972 30.2635 63
    endloop
  endfacet
  facet normal 0 0 -1
    outer loop
      vertex 174.8 2.8 63
      vertex 91.4316 30.0017 63
      vertex 91.4676 30.1318 63
    endloop
  endfacet
  facet normal 0 0 -1
    outer loop
      vertex 174.8 2.8 63
      vertex 91.3892 29.8736 63
      vertex 91.4316 30.0017 63
    endloop
  endfacet
  facet normal 0 0 -1
    outer loop
      vertex 174.8 2.8 63
      vertex 91.3407 29.7476 63
      vertex 91.3892 29.8736 63
    endloop
  endfacet
  facet normal 0 0 -1
    outer loop
      vertex 174.8 2.8 63
      vertex 91.286 29.6242 63
      vertex 91.3407 29.7476 63
    endloop
  endfacet
  facet normal 0 0 -1
    outer loop
      vertex 174.8 2.8 63
      vertex 91.2253 29.5037 63
      vertex 91.286 29.6242 63
    endloop
  endfacet
  facet normal 0 0 -1
    outer loop
      vertex 174.8 2.8 63
      vertex 91.1588 29.3862 63
      vertex 91.2253 29.5037 63
    endloop
  endfacet
  facet normal 0 0 -1
    outer loop
      vertex 174.8 2.8 63
      vertex 91.0865 29.2722 63
      vertex 91.1588 29.3862 63
    endloop
  endfacet
  facet normal 0 0 -1
    outer loop
      vertex 174.8 2.8 63
      vertex 91.0088 29.1618 63
      vertex 91.0865 29.2722 63
    endloop
  endfacet
  facet normal 0 0 -1
    outer loop
      vertex 174.8 2.8 63
      vertex 90.9258 29.0554 63
      vertex 91.0088 29.1618 63
    endloop
  endfacet
  facet normal 0 0 -1
    outer loop
      vertex 174.8 2.8 63
      vertex 90.8376 28.9532 63
      vertex 90.9258 29.0554 63
    endloop
  endfacet
  facet normal 0 0 -1
    outer loop
      vertex 174.8 2.8 63
      vertex 90.7445 28.8555 63
      vertex 90.8376 28.9532 63
    endloop
  endfacet
  facet normal 0 0 -1
    outer loop
      vertex 174.8 2.8 63
      vertex 90.6468 28.7624 63
      vertex 90.7445 28.8555 63
    endloop
  endfacet
  facet normal 0 0 -1
    outer loop
      vertex 174.8 2.8 63
      vertex 90.5446 28.6742 63
      vertex 90.6468 28.7624 63
    endloop
  endfacet
  facet normal 0 0 -1
    outer loop
      vertex 174.8 2.8 63
      vertex 90.4382 28.5912 63
      vertex 90.5446 28.6742 63
    endloop
  endfacet
  facet normal 0 0 -1
    outer loop
      vertex 174.8 2.8 63
      vertex 90.3278 28.5135 63
      vertex 90.4382 28.5912 63
    endloop
  endfacet
  facet normal 0 0 -1
    outer loop
      vertex 174.8 2.8 63
      vertex 90.2138 28.4412 63
      vertex 90.3278 28.5135 63
    endloop
  endfacet
  facet normal 0 0 -1
    outer loop
      vertex 174.8 2.8 63
      vertex 90.0963 28.3747 63
      vertex 90.2138 28.4412 63
    endloop
  endfacet
  facet normal 0 0 -1
    outer loop
      vertex 174.8 2.8 63
      vertex 89.9758 28.314 63
      vertex 90.0963 28.3747 63
    endloop
  endfacet
  facet normal 0 0 -1
    outer loop
      vertex 174.8 2.8 63
      vertex 89.8524 28.2593 63
      vertex 89.9758 28.314 63
    endloop
  endfacet
  facet normal 0 0 -1
    outer loop
      vertex 174.8 2.8 63
      vertex 89.7264 28.2108 63
      vertex 89.8524 28.2593 63
    endloop
  endfacet
  facet normal 0 0 -1
    outer loop
      vertex 174.8 2.8 63
      vertex 89.5983 28.1684 63
      vertex 89.7264 28.2108 63
    endloop
  endfacet
  facet normal 0 0 -1
    outer loop
      vertex 174.8 2.8 63
      vertex 89.4682 28.1324 63
      vertex 89.5983 28.1684 63
    endloop
  endfacet
  facet normal 0 0 -1
    outer loop
      vertex 174.8 2.8 63
      vertex 89.3365 28.1028 63
      vertex 89.4682 28.1324 63
    endloop
  endfacet
  facet normal 0 0 -1
    outer loop
      vertex 174.8 2.8 63
      vertex 89.2035 28.0798 63
      vertex 89.3365 28.1028 63
    endloop
  endfacet
  facet normal 0 0 -1
    outer loop
      vertex 174.8 2.8 63
      vertex 89.0695 28.0632 63
      vertex 89.2035 28.0798 63
    endloop
  endfacet
  facet normal 0 0 -1
    outer loop
      vertex 174.8 2.8 63
      vertex 88.9349 28.0533 63
      vertex 89.0695 28.0632 63
    endloop
  endfacet
  facet normal 0 0 -1
    outer loop
      vertex 174.8 2.8 63
      vertex 88.8 28.05 63
      vertex 88.9349 28.0533 63
    endloop
  endfacet
  facet normal 0 0 -1
    outer loop
      vertex 2.8 2.8 63
      vertex 88.8 28.05 63
      vertex 174.8 2.8 63
    endloop
  endfacet
  facet normal -0 0 -1
    outer loop
      vertex 88.8 28.05 63
      vertex 2.8 2.8 63
      vertex 88.6651 28.0533 63
    endloop
  endfacet
  facet normal -0 0 -1
    outer loop
      vertex 88.6651 28.0533 63
      vertex 2.8 2.8 63
      vertex 88.5305 28.0632 63
    endloop
  endfacet
  facet normal -0 0 -1
    outer loop
      vertex 88.5305 28.0632 63
      vertex 2.8 2.8 63
      vertex 88.3965 28.0798 63
    endloop
  endfacet
  facet normal -0 0 -1
    outer loop
      vertex 88.3965 28.0798 63
      vertex 2.8 2.8 63
      vertex 88.2635 28.1028 63
    endloop
  endfacet
  facet normal -0 0 -1
    outer loop
      vertex 88.2635 28.1028 63
      vertex 2.8 2.8 63
      vertex 88.1318 28.1324 63
    endloop
  endfacet
  facet normal -0 0 -1
    outer loop
      vertex 86.0533 30.6651 63
      vertex 2.8 2.8 63
      vertex 86.05 30.8 63
    endloop
  endfacet
  facet normal -0 0 -1
    outer loop
      vertex 86.0632 30.5305 63
      vertex 2.8 2.8 63
      vertex 86.0533 30.6651 63
    endloop
  endfacet
  facet normal -0 0 -1
    outer loop
      vertex 86.0798 30.3965 63
      vertex 2.8 2.8 63
      vertex 86.0632 30.5305 63
    endloop
  endfacet
  facet normal -0 0 -1
    outer loop
      vertex 86.1028 30.2635 63
      vertex 2.8 2.8 63
      vertex 86.0798 30.3965 63
    endloop
  endfacet
  facet normal -0 0 -1
    outer loop
      vertex 86.1324 30.1318 63
      vertex 2.8 2.8 63
      vertex 86.1028 30.2635 63
    endloop
  endfacet
  facet normal -0 0 -1
    outer loop
      vertex 86.1684 30.0017 63
      vertex 2.8 2.8 63
      vertex 86.1324 30.1318 63
    endloop
  endfacet
  facet normal -0 0 -1
    outer loop
      vertex 86.2108 29.8736 63
      vertex 2.8 2.8 63
      vertex 86.1684 30.0017 63
    endloop
  endfacet
  facet normal -0 0 -1
    outer loop
      vertex 86.2593 29.7476 63
      vertex 2.8 2.8 63
      vertex 86.2108 29.8736 63
    endloop
  endfacet
  facet normal -0 0 -1
    outer loop
      vertex 86.314 29.6242 63
      vertex 2.8 2.8 63
      vertex 86.2593 29.7476 63
    endloop
  endfacet
  facet normal -0 0 -1
    outer loop
      vertex 86.3747 29.5037 63
      vertex 2.8 2.8 63
      vertex 86.314 29.6242 63
    endloop
  endfacet
  facet normal -0 0 -1
    outer loop
      vertex 86.4412 29.3862 63
      vertex 2.8 2.8 63
      vertex 86.3747 29.5037 63
    endloop
  endfacet
  facet normal -0 0 -1
    outer loop
      vertex 86.5135 29.2722 63
      vertex 2.8 2.8 63
      vertex 86.4412 29.3862 63
    endloop
  endfacet
  facet normal -0 0 -1
    outer loop
      vertex 86.5912 29.1618 63
      vertex 2.8 2.8 63
      vertex 86.5135 29.2722 63
    endloop
  endfacet
  facet normal -0 0 -1
    outer loop
      vertex 86.6742 29.0554 63
      vertex 2.8 2.8 63
      vertex 86.5912 29.1618 63
    endloop
  endfacet
  facet normal -0 0 -1
    outer loop
      vertex 86.7624 28.9532 63
      vertex 2.8 2.8 63
      vertex 86.6742 29.0554 63
    endloop
  endfacet
  facet normal -0 0 -1
    outer loop
      vertex 86.8555 28.8555 63
      vertex 2.8 2.8 63
      vertex 86.7624 28.9532 63
    endloop
  endfacet
  facet normal -0 0 -1
    outer loop
      vertex 86.9532 28.7624 63
      vertex 2.8 2.8 63
      vertex 86.8555 28.8555 63
    endloop
  endfacet
  facet normal -0 0 -1
    outer loop
      vertex 87.0554 28.6742 63
      vertex 2.8 2.8 63
      vertex 86.9532 28.7624 63
    endloop
  endfacet
  facet normal -0 0 -1
    outer loop
      vertex 87.1618 28.5912 63
      vertex 2.8 2.8 63
      vertex 87.0554 28.6742 63
    endloop
  endfacet
  facet normal -0 0 -1
    outer loop
      vertex 87.2722 28.5135 63
      vertex 2.8 2.8 63
      vertex 87.1618 28.5912 63
    endloop
  endfacet
  facet normal -0 0 -1
    outer loop
      vertex 87.3862 28.4412 63
      vertex 2.8 2.8 63
      vertex 87.2722 28.5135 63
    endloop
  endfacet
  facet normal -0 0 -1
    outer loop
      vertex 87.5037 28.3747 63
      vertex 2.8 2.8 63
      vertex 87.3862 28.4412 63
    endloop
  endfacet
  facet normal -0 0 -1
    outer loop
      vertex 87.6242 28.314 63
      vertex 2.8 2.8 63
      vertex 87.5037 28.3747 63
    endloop
  endfacet
  facet normal -0 0 -1
    outer loop
      vertex 87.7476 28.2593 63
      vertex 2.8 2.8 63
      vertex 87.6242 28.314 63
    endloop
  endfacet
  facet normal -0 0 -1
    outer loop
      vertex 87.8736 28.2108 63
      vertex 2.8 2.8 63
      vertex 87.7476 28.2593 63
    endloop
  endfacet
  facet normal -0 0 -1
    outer loop
      vertex 88.0017 28.1684 63
      vertex 2.8 2.8 63
      vertex 87.8736 28.2108 63
    endloop
  endfacet
  facet normal -0 0 -1
    outer loop
      vertex 88.1318 28.1324 63
      vertex 2.8 2.8 63
      vertex 88.0017 28.1684 63
    endloop
  endfacet
  facet normal 0 0 -1
    outer loop
      vertex 91.5467 30.9349 63
      vertex 174.8 58.8 63
      vertex 91.55 30.8 63
    endloop
  endfacet
  facet normal 0 0 -1
    outer loop
      vertex 91.5368 31.0695 63
      vertex 174.8 58.8 63
      vertex 91.5467 30.9349 63
    endloop
  endfacet
  facet normal 0 0 -1
    outer loop
      vertex 91.5202 31.2035 63
      vertex 174.8 58.8 63
      vertex 91.5368 31.0695 63
    endloop
  endfacet
  facet normal 0 0 -1
    outer loop
      vertex 91.4972 31.3365 63
      vertex 174.8 58.8 63
      vertex 91.5202 31.2035 63
    endloop
  endfacet
  facet normal 0 0 -1
    outer loop
      vertex 91.4676 31.4682 63
      vertex 174.8 58.8 63
      vertex 91.4972 31.3365 63
    endloop
  endfacet
  facet normal 0 0 -1
    outer loop
      vertex 91.4316 31.5983 63
      vertex 174.8 58.8 63
      vertex 91.4676 31.4682 63
    endloop
  endfacet
  facet normal 0 0 -1
    outer loop
      vertex 91.3892 31.7264 63
      vertex 174.8 58.8 63
      vertex 91.4316 31.5983 63
    endloop
  endfacet
  facet normal 0 0 -1
    outer loop
      vertex 91.3407 31.8524 63
      vertex 174.8 58.8 63
      vertex 91.3892 31.7264 63
    endloop
  endfacet
  facet normal 0 0 -1
    outer loop
      vertex 91.286 31.9758 63
      vertex 174.8 58.8 63
      vertex 91.3407 31.8524 63
    endloop
  endfacet
  facet normal 0 0 -1
    outer loop
      vertex 91.2253 32.0963 63
      vertex 174.8 58.8 63
      vertex 91.286 31.9758 63
    endloop
  endfacet
  facet normal 0 0 -1
    outer loop
      vertex 91.1588 32.2138 63
      vertex 174.8 58.8 63
      vertex 91.2253 32.0963 63
    endloop
  endfacet
  facet normal 0 0 -1
    outer loop
      vertex 91.0865 32.3278 63
      vertex 174.8 58.8 63
      vertex 91.1588 32.2138 63
    endloop
  endfacet
  facet normal 0 0 -1
    outer loop
      vertex 91.0088 32.4382 63
      vertex 174.8 58.8 63
      vertex 91.0865 32.3278 63
    endloop
  endfacet
  facet normal 0 0 -1
    outer loop
      vertex 90.9258 32.5446 63
      vertex 174.8 58.8 63
      vertex 91.0088 32.4382 63
    endloop
  endfacet
  facet normal 0 0 -1
    outer loop
      vertex 90.8376 32.6468 63
      vertex 174.8 58.8 63
      vertex 90.9258 32.5446 63
    endloop
  endfacet
  facet normal 0 0 -1
    outer loop
      vertex 90.7445 32.7445 63
      vertex 174.8 58.8 63
      vertex 90.8376 32.6468 63
    endloop
  endfacet
  facet normal 0 0 -1
    outer loop
      vertex 90.6468 32.8376 63
      vertex 174.8 58.8 63
      vertex 90.7445 32.7445 63
    endloop
  endfacet
  facet normal 0 0 -1
    outer loop
      vertex 90.5446 32.9258 63
      vertex 174.8 58.8 63
      vertex 90.6468 32.8376 63
    endloop
  endfacet
  facet normal 0 0 -1
    outer loop
      vertex 90.4382 33.0088 63
      vertex 174.8 58.8 63
      vertex 90.5446 32.9258 63
    endloop
  endfacet
  facet normal 0 0 -1
    outer loop
      vertex 90.3278 33.0865 63
      vertex 174.8 58.8 63
      vertex 90.4382 33.0088 63
    endloop
  endfacet
  facet normal 0 0 -1
    outer loop
      vertex 90.2138 33.1588 63
      vertex 174.8 58.8 63
      vertex 90.3278 33.0865 63
    endloop
  endfacet
  facet normal 0 0 -1
    outer loop
      vertex 90.0963 33.2253 63
      vertex 174.8 58.8 63
      vertex 90.2138 33.1588 63
    endloop
  endfacet
  facet normal 0 0 -1
    outer loop
      vertex 89.9758 33.286 63
      vertex 174.8 58.8 63
      vertex 90.0963 33.2253 63
    endloop
  endfacet
  facet normal 0 0 -1
    outer loop
      vertex 89.8524 33.3407 63
      vertex 174.8 58.8 63
      vertex 89.9758 33.286 63
    endloop
  endfacet
  facet normal 0 0 -1
    outer loop
      vertex 89.7264 33.3892 63
      vertex 174.8 58.8 63
      vertex 89.8524 33.3407 63
    endloop
  endfacet
  facet normal 0 0 -1
    outer loop
      vertex 89.5983 33.4316 63
      vertex 174.8 58.8 63
      vertex 89.7264 33.3892 63
    endloop
  endfacet
  facet normal 0 0 -1
    outer loop
      vertex 89.4682 33.4676 63
      vertex 174.8 58.8 63
      vertex 89.5983 33.4316 63
    endloop
  endfacet
  facet normal 0 0 -1
    outer loop
      vertex 89.3365 33.4972 63
      vertex 174.8 58.8 63
      vertex 89.4682 33.4676 63
    endloop
  endfacet
  facet normal 0 0 -1
    outer loop
      vertex 89.2035 33.5202 63
      vertex 174.8 58.8 63
      vertex 89.3365 33.4972 63
    endloop
  endfacet
  facet normal 0 0 -1
    outer loop
      vertex 89.0695 33.5368 63
      vertex 174.8 58.8 63
      vertex 89.2035 33.5202 63
    endloop
  endfacet
  facet normal 0 0 -1
    outer loop
      vertex 88.9349 33.5467 63
      vertex 174.8 58.8 63
      vertex 89.0695 33.5368 63
    endloop
  endfacet
  facet normal 0 0 -1
    outer loop
      vertex 88.8 33.55 63
      vertex 174.8 58.8 63
      vertex 88.9349 33.5467 63
    endloop
  endfacet
  facet normal 0 0 -1
    outer loop
      vertex 2.8 58.8 63
      vertex 88.8 33.55 63
      vertex 88.6651 33.5467 63
    endloop
  endfacet
  facet normal 0 0 -1
    outer loop
      vertex 2.8 58.8 63
      vertex 88.6651 33.5467 63
      vertex 88.5305 33.5368 63
    endloop
  endfacet
  facet normal 0 0 -1
    outer loop
      vertex 2.8 58.8 63
      vertex 88.5305 33.5368 63
      vertex 88.3965 33.5202 63
    endloop
  endfacet
  facet normal 0 0 -1
    outer loop
      vertex 2.8 58.8 63
      vertex 88.3965 33.5202 63
      vertex 88.2635 33.4972 63
    endloop
  endfacet
  facet normal 0 0 -1
    outer loop
      vertex 2.8 58.8 63
      vertex 88.2635 33.4972 63
      vertex 88.1318 33.4676 63
    endloop
  endfacet
  facet normal 0 0 -1
    outer loop
      vertex 2.8 58.8 63
      vertex 88.1318 33.4676 63
      vertex 88.0017 33.4316 63
    endloop
  endfacet
  facet normal 0 0 -1
    outer loop
      vertex 2.8 58.8 63
      vertex 86.05 30.8 63
      vertex 2.8 2.8 63
    endloop
  endfacet
  facet normal 0 0 -1
    outer loop
      vertex 86.05 30.8 63
      vertex 2.8 58.8 63
      vertex 86.0533 30.9349 63
    endloop
  endfacet
  facet normal 0 0 -1
    outer loop
      vertex 86.0533 30.9349 63
      vertex 2.8 58.8 63
      vertex 86.0632 31.0695 63
    endloop
  endfacet
  facet normal 0 0 -1
    outer loop
      vertex 86.0632 31.0695 63
      vertex 2.8 58.8 63
      vertex 86.0798 31.2035 63
    endloop
  endfacet
  facet normal 0 0 -1
    outer loop
      vertex 86.0798 31.2035 63
      vertex 2.8 58.8 63
      vertex 86.1028 31.3365 63
    endloop
  endfacet
  facet normal 0 0 -1
    outer loop
      vertex 86.1028 31.3365 63
      vertex 2.8 58.8 63
      vertex 86.1324 31.4682 63
    endloop
  endfacet
  facet normal 0 0 -1
    outer loop
      vertex 86.1324 31.4682 63
      vertex 2.8 58.8 63
      vertex 86.1684 31.5983 63
    endloop
  endfacet
  facet normal 0 0 -1
    outer loop
      vertex 86.1684 31.5983 63
      vertex 2.8 58.8 63
      vertex 86.2108 31.7264 63
    endloop
  endfacet
  facet normal 0 0 -1
    outer loop
      vertex 86.2108 31.7264 63
      vertex 2.8 58.8 63
      vertex 86.2593 31.8524 63
    endloop
  endfacet
  facet normal 0 0 -1
    outer loop
      vertex 86.2593 31.8524 63
      vertex 2.8 58.8 63
      vertex 86.314 31.9758 63
    endloop
  endfacet
  facet normal 0 0 -1
    outer loop
      vertex 86.314 31.9758 63
      vertex 2.8 58.8 63
      vertex 86.3747 32.0963 63
    endloop
  endfacet
  facet normal 0 0 -1
    outer loop
      vertex 86.3747 32.0963 63
      vertex 2.8 58.8 63
      vertex 86.4412 32.2138 63
    endloop
  endfacet
  facet normal 0 0 -1
    outer loop
      vertex 86.4412 32.2138 63
      vertex 2.8 58.8 63
      vertex 86.5135 32.3278 63
    endloop
  endfacet
  facet normal 0 0 -1
    outer loop
      vertex 86.5135 32.3278 63
      vertex 2.8 58.8 63
      vertex 86.5912 32.4382 63
    endloop
  endfacet
  facet normal 0 0 -1
    outer loop
      vertex 86.5912 32.4382 63
      vertex 2.8 58.8 63
      vertex 86.6742 32.5446 63
    endloop
  endfacet
  facet normal 0 0 -1
    outer loop
      vertex 86.6742 32.5446 63
      vertex 2.8 58.8 63
      vertex 86.7624 32.6468 63
    endloop
  endfacet
  facet normal 0 0 -1
    outer loop
      vertex 86.7624 32.6468 63
      vertex 2.8 58.8 63
      vertex 86.8555 32.7445 63
    endloop
  endfacet
  facet normal 0 0 -1
    outer loop
      vertex 86.8555 32.7445 63
      vertex 2.8 58.8 63
      vertex 86.9532 32.8376 63
    endloop
  endfacet
  facet normal 0 0 -1
    outer loop
      vertex 86.9532 32.8376 63
      vertex 2.8 58.8 63
      vertex 87.0554 32.9258 63
    endloop
  endfacet
  facet normal 0 0 -1
    outer loop
      vertex 87.0554 32.9258 63
      vertex 2.8 58.8 63
      vertex 87.1618 33.0088 63
    endloop
  endfacet
  facet normal 0 0 -1
    outer loop
      vertex 87.1618 33.0088 63
      vertex 2.8 58.8 63
      vertex 87.2722 33.0865 63
    endloop
  endfacet
  facet normal 0 0 -1
    outer loop
      vertex 87.2722 33.0865 63
      vertex 2.8 58.8 63
      vertex 87.3862 33.1588 63
    endloop
  endfacet
  facet normal 0 0 -1
    outer loop
      vertex 87.3862 33.1588 63
      vertex 2.8 58.8 63
      vertex 87.5037 33.2253 63
    endloop
  endfacet
  facet normal 0 0 -1
    outer loop
      vertex 87.5037 33.2253 63
      vertex 2.8 58.8 63
      vertex 87.6242 33.286 63
    endloop
  endfacet
  facet normal 0 0 -1
    outer loop
      vertex 87.6242 33.286 63
      vertex 2.8 58.8 63
      vertex 87.7476 33.3407 63
    endloop
  endfacet
  facet normal 0 0 -1
    outer loop
      vertex 88.8 33.55 63
      vertex 2.8 58.8 63
      vertex 174.8 58.8 63
    endloop
  endfacet
  facet normal 0 0 -1
    outer loop
      vertex 87.8736 33.3892 63
      vertex 2.8 58.8 63
      vertex 88.0017 33.4316 63
    endloop
  endfacet
  facet normal 0 0 -1
    outer loop
      vertex 87.7476 33.3407 63
      vertex 2.8 58.8 63
      vertex 87.8736 33.3892 63
    endloop
  endfacet
  facet normal 1 0 0
    outer loop
      vertex 2.8 58.8 63
      vertex 2.8 38.8 32
      vertex 2.8 58.8 0
    endloop
  endfacet
  facet normal 1 0 0
    outer loop
      vertex 2.8 58.8 63
      vertex 2.8 22.8 32
      vertex 2.8 38.8 32
    endloop
  endfacet
  facet normal 1 -0 0
    outer loop
      vertex 2.8 2.8 63
      vertex 2.8 22.8 32
      vertex 2.8 58.8 63
    endloop
  endfacet
  facet normal 1 0 0
    outer loop
      vertex 2.8 2.8 0
      vertex 2.8 22.8 32
      vertex 2.8 2.8 63
    endloop
  endfacet
  facet normal 1 0 0
    outer loop
      vertex 2.8 22.8 32
      vertex 2.8 2.8 0
      vertex 2.8 22.8 0
    endloop
  endfacet
  facet normal 1 0 0
    outer loop
      vertex 2.8 58.8 0
      vertex 2.8 38.8 32
      vertex 2.8 38.8 0
    endloop
  endfacet
  facet normal 0 -1 0
    outer loop
      vertex 2.8 58.8 0
      vertex 174.8 58.8 63
      vertex 2.8 58.8 63
    endloop
  endfacet
  facet normal 0 -1 -0
    outer loop
      vertex 174.8 58.8 63
      vertex 2.8 58.8 0
      vertex 174.8 58.8 0
    endloop
  endfacet
  facet normal 0 1 -0
    outer loop
      vertex 174.8 2.8 0
      vertex 2.8 2.8 63
      vertex 174.8 2.8 63
    endloop
  endfacet
  facet normal 0 1 0
    outer loop
      vertex 2.8 2.8 63
      vertex 174.8 2.8 0
      vertex 2.8 2.8 0
    endloop
  endfacet
  facet normal 0 0 -1
    outer loop
      vertex 0 22.8 32
      vertex 2.8 38.8 32
      vertex 2.8 22.8 32
    endloop
  endfacet
  facet normal -0 0 -1
    outer loop
      vertex 2.8 38.8 32
      vertex 0 22.8 32
      vertex 0 38.8 32
    endloop
  endfacet
  facet normal 0 -1 0
    outer loop
      vertex 0 38.8 0
      vertex 2.8 38.8 32
      vertex 0 38.8 32
    endloop
  endfacet
  facet normal 0 -1 -0
    outer loop
      vertex 2.8 38.8 32
      vertex 0 38.8 0
      vertex 2.8 38.8 0
    endloop
  endfacet
  facet normal 0 1 -0
    outer loop
      vertex 2.8 22.8 0
      vertex 0 22.8 32
      vertex 2.8 22.8 32
    endloop
  endfacet
  facet normal 0 1 0
    outer loop
      vertex 0 22.8 32
      vertex 2.8 22.8 0
      vertex 0 22.8 0
    endloop
  endfacet
  facet normal 0.689859 -0.723944 0
    outer loop
      vertex 86.8555 32.7445 63
      vertex 86.9532 32.8376 65.8
      vertex 86.8555 32.7445 65.8
    endloop
  endfacet
  facet normal 0.689859 -0.723944 0
    outer loop
      vertex 86.9532 32.8376 65.8
      vertex 86.8555 32.7445 63
      vertex 86.9532 32.8376 63
    endloop
  endfacet
  facet normal -0.997306 -0.0733531 0
    outer loop
      vertex 91.5467 30.9349 63
      vertex 91.5368 31.0695 65.8
      vertex 91.5368 31.0695 63
    endloop
  endfacet
  facet normal -0.997306 -0.0733531 0
    outer loop
      vertex 91.5368 31.0695 65.8
      vertex 91.5467 30.9349 63
      vertex 91.5467 30.9349 65.8
    endloop
  endfacet
  facet normal -0.999701 -0.0244552 0
    outer loop
      vertex 91.55 30.8 63
      vertex 91.5467 30.9349 65.8
      vertex 91.5467 30.9349 63
    endloop
  endfacet
  facet normal -0.999701 -0.0244552 0
    outer loop
      vertex 91.5467 30.9349 65.8
      vertex 91.55 30.8 63
      vertex 91.55 30.8 65.8
    endloop
  endfacet
  facet normal -0.992414 -0.122941 0
    outer loop
      vertex 91.5368 31.0695 63
      vertex 91.5202 31.2035 65.8
      vertex 91.5202 31.2035 63
    endloop
  endfacet
  facet normal -0.992414 -0.122941 0
    outer loop
      vertex 91.5202 31.2035 65.8
      vertex 91.5368 31.0695 63
      vertex 91.5368 31.0695 65.8
    endloop
  endfacet
  facet normal 0.405245 -0.914208 0
    outer loop
      vertex 87.6242 33.286 63
      vertex 87.7476 33.3407 65.8
      vertex 87.6242 33.286 65.8
    endloop
  endfacet
  facet normal 0.405245 -0.914208 0
    outer loop
      vertex 87.7476 33.3407 65.8
      vertex 87.6242 33.286 63
      vertex 87.7476 33.3407 63
    endloop
  endfacet
  facet normal -0.0733531 0.997306 0
    outer loop
      vertex 89.0695 28.0632 63
      vertex 88.9349 28.0533 65.8
      vertex 89.0695 28.0632 65.8
    endloop
  endfacet
  facet normal -0.0733531 0.997306 0
    outer loop
      vertex 88.9349 28.0533 65.8
      vertex 89.0695 28.0632 63
      vertex 88.9349 28.0533 63
    endloop
  endfacet
  facet normal -0.575548 -0.817768 0
    outer loop
      vertex 90.3278 33.0865 63
      vertex 90.4382 33.0088 65.8
      vertex 90.3278 33.0865 65.8
    endloop
  endfacet
  facet normal -0.575548 -0.817768 -0
    outer loop
      vertex 90.4382 33.0088 65.8
      vertex 90.3278 33.0865 63
      vertex 90.4382 33.0088 63
    endloop
  endfacet
  facet normal -0.870287 -0.492545 0
    outer loop
      vertex 91.2253 32.0963 63
      vertex 91.1588 32.2138 65.8
      vertex 91.1588 32.2138 63
    endloop
  endfacet
  facet normal -0.870287 -0.492545 0
    outer loop
      vertex 91.1588 32.2138 65.8
      vertex 91.2253 32.0963 63
      vertex 91.2253 32.0963 65.8
    endloop
  endfacet
  facet normal 0.997306 -0.0733531 0
    outer loop
      vertex 86.0533 30.9349 65.8
      vertex 86.0632 31.0695 63
      vertex 86.0632 31.0695 65.8
    endloop
  endfacet
  facet normal 0.997306 -0.0733531 0
    outer loop
      vertex 86.0632 31.0695 63
      vertex 86.0533 30.9349 65.8
      vertex 86.0533 30.9349 63
    endloop
  endfacet
  facet normal -0.0733531 -0.997306 0
    outer loop
      vertex 88.9349 33.5467 63
      vertex 89.0695 33.5368 65.8
      vertex 88.9349 33.5467 65.8
    endloop
  endfacet
  facet normal -0.0733531 -0.997306 -0
    outer loop
      vertex 89.0695 33.5368 65.8
      vertex 88.9349 33.5467 63
      vertex 89.0695 33.5368 63
    endloop
  endfacet
  facet normal -0.817768 0.575548 0
    outer loop
      vertex 91.0088 29.1618 63
      vertex 91.0865 29.2722 65.8
      vertex 91.0865 29.2722 63
    endloop
  endfacet
  facet normal -0.817768 0.575548 0
    outer loop
      vertex 91.0865 29.2722 65.8
      vertex 91.0088 29.1618 63
      vertex 91.0088 29.1618 65.8
    endloop
  endfacet
  facet normal 0.615069 -0.788474 0
    outer loop
      vertex 87.0554 32.9258 63
      vertex 87.1618 33.0088 65.8
      vertex 87.0554 32.9258 65.8
    endloop
  endfacet
  facet normal 0.615069 -0.788474 0
    outer loop
      vertex 87.1618 33.0088 65.8
      vertex 87.0554 32.9258 63
      vertex 87.1618 33.0088 63
    endloop
  endfacet
  facet normal -0.405245 -0.914208 0
    outer loop
      vertex 89.8524 33.3407 63
      vertex 89.9758 33.286 65.8
      vertex 89.8524 33.3407 65.8
    endloop
  endfacet
  facet normal -0.405245 -0.914208 -0
    outer loop
      vertex 89.9758 33.286 65.8
      vertex 89.8524 33.3407 63
      vertex 89.9758 33.286 63
    endloop
  endfacet
  facet normal 0.949348 -0.314226 0
    outer loop
      vertex 86.1684 31.5983 65.8
      vertex 86.2108 31.7264 63
      vertex 86.2108 31.7264 65.8
    endloop
  endfacet
  facet normal 0.949348 -0.314226 0
    outer loop
      vertex 86.2108 31.7264 63
      vertex 86.1684 31.5983 65.8
      vertex 86.1684 31.5983 63
    endloop
  endfacet
  facet normal 0.359227 0.93325 -0
    outer loop
      vertex 87.8736 28.2108 63
      vertex 87.7476 28.2593 65.8
      vertex 87.8736 28.2108 65.8
    endloop
  endfacet
  facet normal 0.359227 0.93325 0
    outer loop
      vertex 87.7476 28.2593 65.8
      vertex 87.8736 28.2108 63
      vertex 87.7476 28.2593 63
    endloop
  endfacet
  facet normal -0.65335 -0.757056 0
    outer loop
      vertex 90.5446 32.9258 63
      vertex 90.6468 32.8376 65.8
      vertex 90.5446 32.9258 65.8
    endloop
  endfacet
  facet normal -0.65335 -0.757056 -0
    outer loop
      vertex 90.6468 32.8376 65.8
      vertex 90.5446 32.9258 63
      vertex 90.6468 32.8376 63
    endloop
  endfacet
  facet normal -0.975661 -0.219283 0
    outer loop
      vertex 91.4972 31.3365 63
      vertex 91.4676 31.4682 65.8
      vertex 91.4676 31.4682 63
    endloop
  endfacet
  facet normal -0.975661 -0.219283 0
    outer loop
      vertex 91.4676 31.4682 65.8
      vertex 91.4972 31.3365 63
      vertex 91.4972 31.3365 65.8
    endloop
  endfacet
  facet normal -0.999701 0.0244552 0
    outer loop
      vertex 91.5467 30.6651 63
      vertex 91.55 30.8 65.8
      vertex 91.55 30.8 63
    endloop
  endfacet
  facet normal -0.999701 0.0244552 0
    outer loop
      vertex 91.55 30.8 65.8
      vertex 91.5467 30.6651 63
      vertex 91.5467 30.6651 65.8
    endloop
  endfacet
  facet normal -0.219283 0.975661 0
    outer loop
      vertex 89.4682 28.1324 63
      vertex 89.3365 28.1028 65.8
      vertex 89.4682 28.1324 65.8
    endloop
  endfacet
  facet normal -0.219283 0.975661 0
    outer loop
      vertex 89.3365 28.1028 65.8
      vertex 89.4682 28.1324 63
      vertex 89.3365 28.1028 63
    endloop
  endfacet
  facet normal 0.992414 0.122941 0
    outer loop
      vertex 86.0798 30.3965 65.8
      vertex 86.0632 30.5305 63
      vertex 86.0632 30.5305 65.8
    endloop
  endfacet
  facet normal 0.992414 0.122941 0
    outer loop
      vertex 86.0632 30.5305 63
      vertex 86.0798 30.3965 65.8
      vertex 86.0798 30.3965 63
    endloop
  endfacet
  facet normal 0.93325 0.359227 0
    outer loop
      vertex 86.2593 29.7476 65.8
      vertex 86.2108 29.8736 63
      vertex 86.2108 29.8736 65.8
    endloop
  endfacet
  facet normal 0.93325 0.359227 0
    outer loop
      vertex 86.2108 29.8736 63
      vertex 86.2593 29.7476 65.8
      vertex 86.2593 29.7476 63
    endloop
  endfacet
  facet normal -0.757056 -0.65335 0
    outer loop
      vertex 90.9258 32.5446 63
      vertex 90.8376 32.6468 65.8
      vertex 90.8376 32.6468 63
    endloop
  endfacet
  facet normal -0.757056 -0.65335 0
    outer loop
      vertex 90.8376 32.6468 65.8
      vertex 90.9258 32.5446 63
      vertex 90.9258 32.5446 65.8
    endloop
  endfacet
  facet normal -0.870287 0.492545 0
    outer loop
      vertex 91.1588 29.3862 63
      vertex 91.2253 29.5037 65.8
      vertex 91.2253 29.5037 63
    endloop
  endfacet
  facet normal -0.870287 0.492545 0
    outer loop
      vertex 91.2253 29.5037 65.8
      vertex 91.1588 29.3862 63
      vertex 91.1588 29.3862 65.8
    endloop
  endfacet
  facet normal 0.0733531 -0.997306 0
    outer loop
      vertex 88.5305 33.5368 63
      vertex 88.6651 33.5467 65.8
      vertex 88.5305 33.5368 65.8
    endloop
  endfacet
  facet normal 0.0733531 -0.997306 0
    outer loop
      vertex 88.6651 33.5467 65.8
      vertex 88.5305 33.5368 63
      vertex 88.6651 33.5467 63
    endloop
  endfacet
  facet normal -0.949348 -0.314226 0
    outer loop
      vertex 91.4316 31.5983 63
      vertex 91.3892 31.7264 65.8
      vertex 91.3892 31.7264 63
    endloop
  endfacet
  facet normal -0.949348 -0.314226 0
    outer loop
      vertex 91.3892 31.7264 65.8
      vertex 91.4316 31.5983 63
      vertex 91.4316 31.5983 65.8
    endloop
  endfacet
  facet normal -0.914208 0.405245 0
    outer loop
      vertex 91.286 29.6242 63
      vertex 91.3407 29.7476 65.8
      vertex 91.3407 29.7476 63
    endloop
  endfacet
  facet normal -0.914208 0.405245 0
    outer loop
      vertex 91.3407 29.7476 65.8
      vertex 91.286 29.6242 63
      vertex 91.286 29.6242 65.8
    endloop
  endfacet
  facet normal 0.975661 -0.219283 0
    outer loop
      vertex 86.1028 31.3365 65.8
      vertex 86.1324 31.4682 63
      vertex 86.1324 31.4682 65.8
    endloop
  endfacet
  facet normal 0.975661 -0.219283 0
    outer loop
      vertex 86.1324 31.4682 63
      vertex 86.1028 31.3365 65.8
      vertex 86.1028 31.3365 63
    endloop
  endfacet
  facet normal -0.844484 0.535581 0
    outer loop
      vertex 91.0865 29.2722 63
      vertex 91.1588 29.3862 65.8
      vertex 91.1588 29.3862 63
    endloop
  endfacet
  facet normal -0.844484 0.535581 0
    outer loop
      vertex 91.1588 29.3862 65.8
      vertex 91.0865 29.2722 63
      vertex 91.0865 29.2722 65.8
    endloop
  endfacet
  facet normal -0.405245 0.914208 0
    outer loop
      vertex 89.9758 28.314 63
      vertex 89.8524 28.2593 65.8
      vertex 89.9758 28.314 65.8
    endloop
  endfacet
  facet normal -0.405245 0.914208 0
    outer loop
      vertex 89.8524 28.2593 65.8
      vertex 89.9758 28.314 63
      vertex 89.8524 28.2593 63
    endloop
  endfacet
  facet normal 0.757056 0.65335 0
    outer loop
      vertex 86.7624 28.9532 65.8
      vertex 86.6742 29.0554 63
      vertex 86.6742 29.0554 65.8
    endloop
  endfacet
  facet normal 0.757056 0.65335 0
    outer loop
      vertex 86.6742 29.0554 63
      vertex 86.7624 28.9532 65.8
      vertex 86.7624 28.9532 63
    endloop
  endfacet
  facet normal -0.985374 0.170403 0
    outer loop
      vertex 91.4972 30.2635 63
      vertex 91.5202 30.3965 65.8
      vertex 91.5202 30.3965 63
    endloop
  endfacet
  facet normal -0.985374 0.170403 0
    outer loop
      vertex 91.5202 30.3965 65.8
      vertex 91.4972 30.2635 63
      vertex 91.4972 30.2635 65.8
    endloop
  endfacet
  facet normal 0.266689 -0.963783 0
    outer loop
      vertex 88.0017 33.4316 63
      vertex 88.1318 33.4676 65.8
      vertex 88.0017 33.4316 65.8
    endloop
  endfacet
  facet normal 0.266689 -0.963783 0
    outer loop
      vertex 88.1318 33.4676 65.8
      vertex 88.0017 33.4316 63
      vertex 88.1318 33.4676 63
    endloop
  endfacet
  facet normal -0.44988 -0.893089 0
    outer loop
      vertex 89.9758 33.286 63
      vertex 90.0963 33.2253 65.8
      vertex 89.9758 33.286 65.8
    endloop
  endfacet
  facet normal -0.44988 -0.893089 -0
    outer loop
      vertex 90.0963 33.2253 65.8
      vertex 89.9758 33.286 63
      vertex 90.0963 33.2253 63
    endloop
  endfacet
  facet normal -0.314226 0.949348 0
    outer loop
      vertex 89.7264 28.2108 63
      vertex 89.5983 28.1684 65.8
      vertex 89.7264 28.2108 65.8
    endloop
  endfacet
  facet normal -0.314226 0.949348 0
    outer loop
      vertex 89.5983 28.1684 65.8
      vertex 89.7264 28.2108 63
      vertex 89.5983 28.1684 63
    endloop
  endfacet
  facet normal 0.949348 0.314226 0
    outer loop
      vertex 86.2108 29.8736 65.8
      vertex 86.1684 30.0017 63
      vertex 86.1684 30.0017 65.8
    endloop
  endfacet
  facet normal 0.949348 0.314226 0
    outer loop
      vertex 86.1684 30.0017 63
      vertex 86.2108 29.8736 65.8
      vertex 86.2108 29.8736 63
    endloop
  endfacet
  facet normal 0.992414 -0.122941 0
    outer loop
      vertex 86.0632 31.0695 65.8
      vertex 86.0798 31.2035 63
      vertex 86.0798 31.2035 65.8
    endloop
  endfacet
  facet normal 0.992414 -0.122941 0
    outer loop
      vertex 86.0798 31.2035 63
      vertex 86.0632 31.0695 65.8
      vertex 86.0632 31.0695 63
    endloop
  endfacet
  facet normal -0.170403 0.985374 0
    outer loop
      vertex 89.3365 28.1028 63
      vertex 89.2035 28.0798 65.8
      vertex 89.3365 28.1028 65.8
    endloop
  endfacet
  facet normal -0.170403 0.985374 0
    outer loop
      vertex 89.2035 28.0798 65.8
      vertex 89.3365 28.1028 63
      vertex 89.2035 28.0798 63
    endloop
  endfacet
  facet normal 0.615069 0.788474 -0
    outer loop
      vertex 87.1618 28.5912 63
      vertex 87.0554 28.6742 65.8
      vertex 87.1618 28.5912 65.8
    endloop
  endfacet
  facet normal 0.615069 0.788474 0
    outer loop
      vertex 87.0554 28.6742 65.8
      vertex 87.1618 28.5912 63
      vertex 87.0554 28.6742 63
    endloop
  endfacet
  facet normal 0.870287 0.492545 0
    outer loop
      vertex 86.4412 29.3862 65.8
      vertex 86.3747 29.5037 63
      vertex 86.3747 29.5037 65.8
    endloop
  endfacet
  facet normal 0.870287 0.492545 0
    outer loop
      vertex 86.3747 29.5037 63
      vertex 86.4412 29.3862 65.8
      vertex 86.4412 29.3862 63
    endloop
  endfacet
  facet normal -0.266689 0.963783 0
    outer loop
      vertex 89.5983 28.1684 63
      vertex 89.4682 28.1324 65.8
      vertex 89.5983 28.1684 65.8
    endloop
  endfacet
  facet normal -0.266689 0.963783 0
    outer loop
      vertex 89.4682 28.1324 65.8
      vertex 89.5983 28.1684 63
      vertex 89.4682 28.1324 63
    endloop
  endfacet
  facet normal -0.893089 0.44988 0
    outer loop
      vertex 91.2253 29.5037 63
      vertex 91.286 29.6242 65.8
      vertex 91.286 29.6242 63
    endloop
  endfacet
  facet normal -0.893089 0.44988 0
    outer loop
      vertex 91.286 29.6242 65.8
      vertex 91.2253 29.5037 63
      vertex 91.2253 29.5037 65.8
    endloop
  endfacet
  facet normal -0.788474 -0.615069 0
    outer loop
      vertex 91.0088 32.4382 63
      vertex 90.9258 32.5446 65.8
      vertex 90.9258 32.5446 63
    endloop
  endfacet
  facet normal -0.788474 -0.615069 0
    outer loop
      vertex 90.9258 32.5446 65.8
      vertex 91.0088 32.4382 63
      vertex 91.0088 32.4382 65.8
    endloop
  endfacet
  facet normal -0.122941 0.992414 0
    outer loop
      vertex 89.2035 28.0798 63
      vertex 89.0695 28.0632 65.8
      vertex 89.2035 28.0798 65.8
    endloop
  endfacet
  facet normal -0.122941 0.992414 0
    outer loop
      vertex 89.0695 28.0632 65.8
      vertex 89.2035 28.0798 63
      vertex 89.0695 28.0632 63
    endloop
  endfacet
  facet normal -0.65335 0.757056 0
    outer loop
      vertex 90.6468 28.7624 63
      vertex 90.5446 28.6742 65.8
      vertex 90.6468 28.7624 65.8
    endloop
  endfacet
  facet normal -0.65335 0.757056 0
    outer loop
      vertex 90.5446 28.6742 65.8
      vertex 90.6468 28.7624 63
      vertex 90.5446 28.6742 63
    endloop
  endfacet
  facet normal -0.723944 0.689859 0
    outer loop
      vertex 90.7445 28.8555 63
      vertex 90.8376 28.9532 65.8
      vertex 90.8376 28.9532 63
    endloop
  endfacet
  facet normal -0.723944 0.689859 0
    outer loop
      vertex 90.8376 28.9532 65.8
      vertex 90.7445 28.8555 63
      vertex 90.7445 28.8555 65.8
    endloop
  endfacet
  facet normal -0.757056 0.65335 0
    outer loop
      vertex 90.8376 28.9532 63
      vertex 90.9258 29.0554 65.8
      vertex 90.9258 29.0554 63
    endloop
  endfacet
  facet normal -0.757056 0.65335 0
    outer loop
      vertex 90.9258 29.0554 65.8
      vertex 90.8376 28.9532 63
      vertex 90.8376 28.9532 65.8
    endloop
  endfacet
  facet normal 0.535581 0.844484 -0
    outer loop
      vertex 87.3862 28.4412 63
      vertex 87.2722 28.5135 65.8
      vertex 87.3862 28.4412 65.8
    endloop
  endfacet
  facet normal 0.535581 0.844484 0
    outer loop
      vertex 87.2722 28.5135 65.8
      vertex 87.3862 28.4412 63
      vertex 87.2722 28.5135 63
    endloop
  endfacet
  facet normal 0.0244552 -0.999701 0
    outer loop
      vertex 88.6651 33.5467 63
      vertex 88.8 33.55 65.8
      vertex 88.6651 33.5467 65.8
    endloop
  endfacet
  facet normal 0.0244552 -0.999701 0
    outer loop
      vertex 88.8 33.55 65.8
      vertex 88.6651 33.5467 63
      vertex 88.8 33.55 63
    endloop
  endfacet
  facet normal -0.0244552 0.999701 0
    outer loop
      vertex 88.9349 28.0533 63
      vertex 88.8 28.05 65.8
      vertex 88.9349 28.0533 65.8
    endloop
  endfacet
  facet normal -0.0244552 0.999701 0
    outer loop
      vertex 88.8 28.05 65.8
      vertex 88.9349 28.0533 63
      vertex 88.8 28.05 63
    endloop
  endfacet
  facet normal -0.992414 0.122941 0
    outer loop
      vertex 91.5202 30.3965 63
      vertex 91.5368 30.5305 65.8
      vertex 91.5368 30.5305 63
    endloop
  endfacet
  facet normal -0.992414 0.122941 0
    outer loop
      vertex 91.5368 30.5305 65.8
      vertex 91.5202 30.3965 63
      vertex 91.5202 30.3965 65.8
    endloop
  endfacet
  facet normal -0.575548 0.817768 0
    outer loop
      vertex 90.4382 28.5912 63
      vertex 90.3278 28.5135 65.8
      vertex 90.4382 28.5912 65.8
    endloop
  endfacet
  facet normal -0.575548 0.817768 0
    outer loop
      vertex 90.3278 28.5135 65.8
      vertex 90.4382 28.5912 63
      vertex 90.3278 28.5135 63
    endloop
  endfacet
  facet normal -0.492545 0.870287 0
    outer loop
      vertex 90.2138 28.4412 63
      vertex 90.0963 28.3747 65.8
      vertex 90.2138 28.4412 65.8
    endloop
  endfacet
  facet normal -0.492545 0.870287 0
    outer loop
      vertex 90.0963 28.3747 65.8
      vertex 90.2138 28.4412 63
      vertex 90.0963 28.3747 63
    endloop
  endfacet
  facet normal -0.93325 -0.359227 0
    outer loop
      vertex 91.3892 31.7264 63
      vertex 91.3407 31.8524 65.8
      vertex 91.3407 31.8524 63
    endloop
  endfacet
  facet normal -0.93325 -0.359227 0
    outer loop
      vertex 91.3407 31.8524 65.8
      vertex 91.3892 31.7264 63
      vertex 91.3892 31.7264 65.8
    endloop
  endfacet
  facet normal -0.492545 -0.870287 0
    outer loop
      vertex 90.0963 33.2253 63
      vertex 90.2138 33.1588 65.8
      vertex 90.0963 33.2253 65.8
    endloop
  endfacet
  facet normal -0.492545 -0.870287 -0
    outer loop
      vertex 90.2138 33.1588 65.8
      vertex 90.0963 33.2253 63
      vertex 90.2138 33.1588 63
    endloop
  endfacet
  facet normal 0.893089 -0.44988 0
    outer loop
      vertex 86.314 31.9758 65.8
      vertex 86.3747 32.0963 63
      vertex 86.3747 32.0963 65.8
    endloop
  endfacet
  facet normal 0.893089 -0.44988 0
    outer loop
      vertex 86.3747 32.0963 63
      vertex 86.314 31.9758 65.8
      vertex 86.314 31.9758 63
    endloop
  endfacet
  facet normal 0.975661 0.219283 0
    outer loop
      vertex 86.1324 30.1318 65.8
      vertex 86.1028 30.2635 63
      vertex 86.1028 30.2635 65.8
    endloop
  endfacet
  facet normal 0.975661 0.219283 0
    outer loop
      vertex 86.1028 30.2635 63
      vertex 86.1324 30.1318 65.8
      vertex 86.1324 30.1318 63
    endloop
  endfacet
  facet normal -0.535581 0.844484 0
    outer loop
      vertex 90.3278 28.5135 63
      vertex 90.2138 28.4412 65.8
      vertex 90.3278 28.5135 65.8
    endloop
  endfacet
  facet normal -0.535581 0.844484 0
    outer loop
      vertex 90.2138 28.4412 65.8
      vertex 90.3278 28.5135 63
      vertex 90.2138 28.4412 63
    endloop
  endfacet
  facet normal 0.997306 0.0733531 0
    outer loop
      vertex 86.0632 30.5305 65.8
      vertex 86.0533 30.6651 63
      vertex 86.0533 30.6651 65.8
    endloop
  endfacet
  facet normal 0.997306 0.0733531 0
    outer loop
      vertex 86.0533 30.6651 63
      vertex 86.0632 30.5305 65.8
      vertex 86.0632 30.5305 63
    endloop
  endfacet
  facet normal -0.93325 0.359227 0
    outer loop
      vertex 91.3407 29.7476 63
      vertex 91.3892 29.8736 65.8
      vertex 91.3892 29.8736 63
    endloop
  endfacet
  facet normal -0.93325 0.359227 0
    outer loop
      vertex 91.3892 29.8736 65.8
      vertex 91.3407 29.7476 63
      vertex 91.3407 29.7476 65.8
    endloop
  endfacet
  facet normal -0.844484 -0.535581 0
    outer loop
      vertex 91.1588 32.2138 63
      vertex 91.0865 32.3278 65.8
      vertex 91.0865 32.3278 63
    endloop
  endfacet
  facet normal -0.844484 -0.535581 0
    outer loop
      vertex 91.0865 32.3278 65.8
      vertex 91.1588 32.2138 63
      vertex 91.1588 32.2138 65.8
    endloop
  endfacet
  facet normal -0.963783 0.266689 0
    outer loop
      vertex 91.4316 30.0017 63
      vertex 91.4676 30.1318 65.8
      vertex 91.4676 30.1318 63
    endloop
  endfacet
  facet normal -0.963783 0.266689 0
    outer loop
      vertex 91.4676 30.1318 65.8
      vertex 91.4316 30.0017 63
      vertex 91.4316 30.0017 65.8
    endloop
  endfacet
  facet normal -0.817768 -0.575548 0
    outer loop
      vertex 91.0865 32.3278 63
      vertex 91.0088 32.4382 65.8
      vertex 91.0088 32.4382 63
    endloop
  endfacet
  facet normal -0.817768 -0.575548 0
    outer loop
      vertex 91.0088 32.4382 65.8
      vertex 91.0865 32.3278 63
      vertex 91.0865 32.3278 65.8
    endloop
  endfacet
  facet normal -0.914208 -0.405245 0
    outer loop
      vertex 91.3407 31.8524 63
      vertex 91.286 31.9758 65.8
      vertex 91.286 31.9758 63
    endloop
  endfacet
  facet normal -0.914208 -0.405245 0
    outer loop
      vertex 91.286 31.9758 65.8
      vertex 91.3407 31.8524 63
      vertex 91.3407 31.8524 65.8
    endloop
  endfacet
  facet normal 0.170403 -0.985374 0
    outer loop
      vertex 88.2635 33.4972 63
      vertex 88.3965 33.5202 65.8
      vertex 88.2635 33.4972 65.8
    endloop
  endfacet
  facet normal 0.170403 -0.985374 0
    outer loop
      vertex 88.3965 33.5202 65.8
      vertex 88.2635 33.4972 63
      vertex 88.3965 33.5202 63
    endloop
  endfacet
  facet normal -0.689859 0.723944 0
    outer loop
      vertex 90.7445 28.8555 63
      vertex 90.6468 28.7624 65.8
      vertex 90.7445 28.8555 65.8
    endloop
  endfacet
  facet normal -0.689859 0.723944 0
    outer loop
      vertex 90.6468 28.7624 65.8
      vertex 90.7445 28.8555 63
      vertex 90.6468 28.7624 63
    endloop
  endfacet
  facet normal 0.985374 -0.170403 0
    outer loop
      vertex 86.0798 31.2035 65.8
      vertex 86.1028 31.3365 63
      vertex 86.1028 31.3365 65.8
    endloop
  endfacet
  facet normal 0.985374 -0.170403 0
    outer loop
      vertex 86.1028 31.3365 63
      vertex 86.0798 31.2035 65.8
      vertex 86.0798 31.2035 63
    endloop
  endfacet
  facet normal 0.219283 -0.975661 0
    outer loop
      vertex 88.1318 33.4676 63
      vertex 88.2635 33.4972 65.8
      vertex 88.1318 33.4676 65.8
    endloop
  endfacet
  facet normal 0.219283 -0.975661 0
    outer loop
      vertex 88.2635 33.4972 65.8
      vertex 88.1318 33.4676 63
      vertex 88.2635 33.4972 63
    endloop
  endfacet
  facet normal -0.314226 -0.949348 0
    outer loop
      vertex 89.5983 33.4316 63
      vertex 89.7264 33.3892 65.8
      vertex 89.5983 33.4316 65.8
    endloop
  endfacet
  facet normal -0.314226 -0.949348 -0
    outer loop
      vertex 89.7264 33.3892 65.8
      vertex 89.5983 33.4316 63
      vertex 89.7264 33.3892 63
    endloop
  endfacet
  facet normal 0.999701 -0.0244552 0
    outer loop
      vertex 86.05 30.8 65.8
      vertex 86.0533 30.9349 63
      vertex 86.0533 30.9349 65.8
    endloop
  endfacet
  facet normal 0.999701 -0.0244552 0
    outer loop
      vertex 86.0533 30.9349 63
      vertex 86.05 30.8 65.8
      vertex 86.05 30.8 63
    endloop
  endfacet
  facet normal 0.65335 -0.757056 0
    outer loop
      vertex 86.9532 32.8376 63
      vertex 87.0554 32.9258 65.8
      vertex 86.9532 32.8376 65.8
    endloop
  endfacet
  facet normal 0.65335 -0.757056 0
    outer loop
      vertex 87.0554 32.9258 65.8
      vertex 86.9532 32.8376 63
      vertex 87.0554 32.9258 63
    endloop
  endfacet
  facet normal 0.723944 0.689859 0
    outer loop
      vertex 86.8555 28.8555 65.8
      vertex 86.7624 28.9532 63
      vertex 86.7624 28.9532 65.8
    endloop
  endfacet
  facet normal 0.723944 0.689859 0
    outer loop
      vertex 86.7624 28.9532 63
      vertex 86.8555 28.8555 65.8
      vertex 86.8555 28.8555 63
    endloop
  endfacet
  facet normal -0.359227 -0.93325 0
    outer loop
      vertex 89.7264 33.3892 63
      vertex 89.8524 33.3407 65.8
      vertex 89.7264 33.3892 65.8
    endloop
  endfacet
  facet normal -0.359227 -0.93325 -0
    outer loop
      vertex 89.8524 33.3407 65.8
      vertex 89.7264 33.3892 63
      vertex 89.8524 33.3407 63
    endloop
  endfacet
  facet normal 0.689859 0.723944 -0
    outer loop
      vertex 86.9532 28.7624 63
      vertex 86.8555 28.8555 65.8
      vertex 86.9532 28.7624 65.8
    endloop
  endfacet
  facet normal 0.689859 0.723944 0
    outer loop
      vertex 86.8555 28.8555 65.8
      vertex 86.9532 28.7624 63
      vertex 86.8555 28.8555 63
    endloop
  endfacet
  facet normal 0.492545 -0.870287 0
    outer loop
      vertex 87.3862 33.1588 63
      vertex 87.5037 33.2253 65.8
      vertex 87.3862 33.1588 65.8
    endloop
  endfacet
  facet normal 0.492545 -0.870287 0
    outer loop
      vertex 87.5037 33.2253 65.8
      vertex 87.3862 33.1588 63
      vertex 87.5037 33.2253 63
    endloop
  endfacet
  facet normal 0.359227 -0.93325 0
    outer loop
      vertex 87.7476 33.3407 63
      vertex 87.8736 33.3892 65.8
      vertex 87.7476 33.3407 65.8
    endloop
  endfacet
  facet normal 0.359227 -0.93325 0
    outer loop
      vertex 87.8736 33.3892 65.8
      vertex 87.7476 33.3407 63
      vertex 87.8736 33.3892 63
    endloop
  endfacet
  facet normal -0.985374 -0.170403 0
    outer loop
      vertex 91.5202 31.2035 63
      vertex 91.4972 31.3365 65.8
      vertex 91.4972 31.3365 63
    endloop
  endfacet
  facet normal -0.985374 -0.170403 0
    outer loop
      vertex 91.4972 31.3365 65.8
      vertex 91.5202 31.2035 63
      vertex 91.5202 31.2035 65.8
    endloop
  endfacet
  facet normal -0.615069 0.788474 0
    outer loop
      vertex 90.5446 28.6742 63
      vertex 90.4382 28.5912 65.8
      vertex 90.5446 28.6742 65.8
    endloop
  endfacet
  facet normal -0.615069 0.788474 0
    outer loop
      vertex 90.4382 28.5912 65.8
      vertex 90.5446 28.6742 63
      vertex 90.4382 28.5912 63
    endloop
  endfacet
  facet normal 0.266689 0.963783 -0
    outer loop
      vertex 88.1318 28.1324 63
      vertex 88.0017 28.1684 65.8
      vertex 88.1318 28.1324 65.8
    endloop
  endfacet
  facet normal 0.266689 0.963783 0
    outer loop
      vertex 88.0017 28.1684 65.8
      vertex 88.1318 28.1324 63
      vertex 88.0017 28.1684 63
    endloop
  endfacet
  facet normal -0.997306 0.0733531 0
    outer loop
      vertex 91.5368 30.5305 63
      vertex 91.5467 30.6651 65.8
      vertex 91.5467 30.6651 63
    endloop
  endfacet
  facet normal -0.997306 0.0733531 0
    outer loop
      vertex 91.5467 30.6651 65.8
      vertex 91.5368 30.5305 63
      vertex 91.5368 30.5305 65.8
    endloop
  endfacet
  facet normal -0.975661 0.219283 0
    outer loop
      vertex 91.4676 30.1318 63
      vertex 91.4972 30.2635 65.8
      vertex 91.4972 30.2635 63
    endloop
  endfacet
  facet normal -0.975661 0.219283 0
    outer loop
      vertex 91.4972 30.2635 65.8
      vertex 91.4676 30.1318 63
      vertex 91.4676 30.1318 65.8
    endloop
  endfacet
  facet normal -0.893089 -0.44988 0
    outer loop
      vertex 91.286 31.9758 63
      vertex 91.2253 32.0963 65.8
      vertex 91.2253 32.0963 63
    endloop
  endfacet
  facet normal -0.893089 -0.44988 0
    outer loop
      vertex 91.2253 32.0963 65.8
      vertex 91.286 31.9758 63
      vertex 91.286 31.9758 65.8
    endloop
  endfacet
  facet normal -0.723944 -0.689859 0
    outer loop
      vertex 90.8376 32.6468 63
      vertex 90.7445 32.7445 65.8
      vertex 90.7445 32.7445 63
    endloop
  endfacet
  facet normal -0.723944 -0.689859 0
    outer loop
      vertex 90.7445 32.7445 65.8
      vertex 90.8376 32.6468 63
      vertex 90.8376 32.6468 65.8
    endloop
  endfacet
  facet normal -0.170403 -0.985374 0
    outer loop
      vertex 89.2035 33.5202 63
      vertex 89.3365 33.4972 65.8
      vertex 89.2035 33.5202 65.8
    endloop
  endfacet
  facet normal -0.170403 -0.985374 -0
    outer loop
      vertex 89.3365 33.4972 65.8
      vertex 89.2035 33.5202 63
      vertex 89.3365 33.4972 63
    endloop
  endfacet
  facet normal -0.963783 -0.266689 0
    outer loop
      vertex 91.4676 31.4682 63
      vertex 91.4316 31.5983 65.8
      vertex 91.4316 31.5983 63
    endloop
  endfacet
  facet normal -0.963783 -0.266689 0
    outer loop
      vertex 91.4316 31.5983 65.8
      vertex 91.4676 31.4682 63
      vertex 91.4676 31.4682 65.8
    endloop
  endfacet
  facet normal -0.122941 -0.992414 0
    outer loop
      vertex 89.0695 33.5368 63
      vertex 89.2035 33.5202 65.8
      vertex 89.0695 33.5368 65.8
    endloop
  endfacet
  facet normal -0.122941 -0.992414 -0
    outer loop
      vertex 89.2035 33.5202 65.8
      vertex 89.0695 33.5368 63
      vertex 89.2035 33.5202 63
    endloop
  endfacet
  facet normal -0.535581 -0.844484 0
    outer loop
      vertex 90.2138 33.1588 63
      vertex 90.3278 33.0865 65.8
      vertex 90.2138 33.1588 65.8
    endloop
  endfacet
  facet normal -0.535581 -0.844484 -0
    outer loop
      vertex 90.3278 33.0865 65.8
      vertex 90.2138 33.1588 63
      vertex 90.3278 33.0865 63
    endloop
  endfacet
  facet normal -0.788474 0.615069 0
    outer loop
      vertex 90.9258 29.0554 63
      vertex 91.0088 29.1618 65.8
      vertex 91.0088 29.1618 63
    endloop
  endfacet
  facet normal -0.788474 0.615069 0
    outer loop
      vertex 91.0088 29.1618 65.8
      vertex 90.9258 29.0554 63
      vertex 90.9258 29.0554 65.8
    endloop
  endfacet
  facet normal -0.949348 0.314226 0
    outer loop
      vertex 91.3892 29.8736 63
      vertex 91.4316 30.0017 65.8
      vertex 91.4316 30.0017 63
    endloop
  endfacet
  facet normal -0.949348 0.314226 0
    outer loop
      vertex 91.4316 30.0017 65.8
      vertex 91.3892 29.8736 63
      vertex 91.3892 29.8736 65.8
    endloop
  endfacet
  facet normal 0.817768 -0.575548 0
    outer loop
      vertex 86.5135 32.3278 65.8
      vertex 86.5912 32.4382 63
      vertex 86.5912 32.4382 65.8
    endloop
  endfacet
  facet normal 0.817768 -0.575548 0
    outer loop
      vertex 86.5912 32.4382 63
      vertex 86.5135 32.3278 65.8
      vertex 86.5135 32.3278 63
    endloop
  endfacet
  facet normal 0.314226 0.949348 -0
    outer loop
      vertex 88.0017 28.1684 63
      vertex 87.8736 28.2108 65.8
      vertex 88.0017 28.1684 65.8
    endloop
  endfacet
  facet normal 0.314226 0.949348 0
    outer loop
      vertex 87.8736 28.2108 65.8
      vertex 88.0017 28.1684 63
      vertex 87.8736 28.2108 63
    endloop
  endfacet
  facet normal 0.122941 -0.992414 0
    outer loop
      vertex 88.3965 33.5202 63
      vertex 88.5305 33.5368 65.8
      vertex 88.3965 33.5202 65.8
    endloop
  endfacet
  facet normal 0.122941 -0.992414 0
    outer loop
      vertex 88.5305 33.5368 65.8
      vertex 88.3965 33.5202 63
      vertex 88.5305 33.5368 63
    endloop
  endfacet
  facet normal -0.359227 0.93325 0
    outer loop
      vertex 89.8524 28.2593 63
      vertex 89.7264 28.2108 65.8
      vertex 89.8524 28.2593 65.8
    endloop
  endfacet
  facet normal -0.359227 0.93325 0
    outer loop
      vertex 89.7264 28.2108 65.8
      vertex 89.8524 28.2593 63
      vertex 89.7264 28.2108 63
    endloop
  endfacet
  facet normal 0.788474 -0.615069 0
    outer loop
      vertex 86.5912 32.4382 65.8
      vertex 86.6742 32.5446 63
      vertex 86.6742 32.5446 65.8
    endloop
  endfacet
  facet normal 0.788474 -0.615069 0
    outer loop
      vertex 86.6742 32.5446 63
      vertex 86.5912 32.4382 65.8
      vertex 86.5912 32.4382 63
    endloop
  endfacet
  facet normal -0.689859 -0.723944 0
    outer loop
      vertex 90.6468 32.8376 63
      vertex 90.7445 32.7445 65.8
      vertex 90.6468 32.8376 65.8
    endloop
  endfacet
  facet normal -0.689859 -0.723944 -0
    outer loop
      vertex 90.7445 32.7445 65.8
      vertex 90.6468 32.8376 63
      vertex 90.7445 32.7445 63
    endloop
  endfacet
  facet normal 0.0244552 0.999701 -0
    outer loop
      vertex 88.8 28.05 63
      vertex 88.6651 28.0533 65.8
      vertex 88.8 28.05 65.8
    endloop
  endfacet
  facet normal 0.0244552 0.999701 0
    outer loop
      vertex 88.6651 28.0533 65.8
      vertex 88.8 28.05 63
      vertex 88.6651 28.0533 63
    endloop
  endfacet
  facet normal 0.844484 -0.535581 0
    outer loop
      vertex 86.4412 32.2138 65.8
      vertex 86.5135 32.3278 63
      vertex 86.5135 32.3278 65.8
    endloop
  endfacet
  facet normal 0.844484 -0.535581 0
    outer loop
      vertex 86.5135 32.3278 63
      vertex 86.4412 32.2138 65.8
      vertex 86.4412 32.2138 63
    endloop
  endfacet
  facet normal -0.615069 -0.788474 0
    outer loop
      vertex 90.4382 33.0088 63
      vertex 90.5446 32.9258 65.8
      vertex 90.4382 33.0088 65.8
    endloop
  endfacet
  facet normal -0.615069 -0.788474 -0
    outer loop
      vertex 90.5446 32.9258 65.8
      vertex 90.4382 33.0088 63
      vertex 90.5446 32.9258 63
    endloop
  endfacet
  facet normal 0.219283 0.975661 -0
    outer loop
      vertex 88.2635 28.1028 63
      vertex 88.1318 28.1324 65.8
      vertex 88.2635 28.1028 65.8
    endloop
  endfacet
  facet normal 0.219283 0.975661 0
    outer loop
      vertex 88.1318 28.1324 65.8
      vertex 88.2635 28.1028 63
      vertex 88.1318 28.1324 63
    endloop
  endfacet
  facet normal 0.788474 0.615069 0
    outer loop
      vertex 86.6742 29.0554 65.8
      vertex 86.5912 29.1618 63
      vertex 86.5912 29.1618 65.8
    endloop
  endfacet
  facet normal 0.788474 0.615069 0
    outer loop
      vertex 86.5912 29.1618 63
      vertex 86.6742 29.0554 65.8
      vertex 86.6742 29.0554 63
    endloop
  endfacet
  facet normal 0.817768 0.575548 0
    outer loop
      vertex 86.5912 29.1618 65.8
      vertex 86.5135 29.2722 63
      vertex 86.5135 29.2722 65.8
    endloop
  endfacet
  facet normal 0.817768 0.575548 0
    outer loop
      vertex 86.5135 29.2722 63
      vertex 86.5912 29.1618 65.8
      vertex 86.5912 29.1618 63
    endloop
  endfacet
  facet normal 0.723944 -0.689859 0
    outer loop
      vertex 86.7624 32.6468 65.8
      vertex 86.8555 32.7445 63
      vertex 86.8555 32.7445 65.8
    endloop
  endfacet
  facet normal 0.723944 -0.689859 0
    outer loop
      vertex 86.8555 32.7445 63
      vertex 86.7624 32.6468 65.8
      vertex 86.7624 32.6468 63
    endloop
  endfacet
  facet normal 0.999701 0.0244552 0
    outer loop
      vertex 86.0533 30.6651 65.8
      vertex 86.05 30.8 63
      vertex 86.05 30.8 65.8
    endloop
  endfacet
  facet normal 0.999701 0.0244552 0
    outer loop
      vertex 86.05 30.8 63
      vertex 86.0533 30.6651 65.8
      vertex 86.0533 30.6651 63
    endloop
  endfacet
  facet normal -0.44988 0.893089 0
    outer loop
      vertex 90.0963 28.3747 63
      vertex 89.9758 28.314 65.8
      vertex 90.0963 28.3747 65.8
    endloop
  endfacet
  facet normal -0.44988 0.893089 0
    outer loop
      vertex 89.9758 28.314 65.8
      vertex 90.0963 28.3747 63
      vertex 89.9758 28.314 63
    endloop
  endfacet
  facet normal 0.844484 0.535581 0
    outer loop
      vertex 86.5135 29.2722 65.8
      vertex 86.4412 29.3862 63
      vertex 86.4412 29.3862 65.8
    endloop
  endfacet
  facet normal 0.844484 0.535581 0
    outer loop
      vertex 86.4412 29.3862 63
      vertex 86.5135 29.2722 65.8
      vertex 86.5135 29.2722 63
    endloop
  endfacet
  facet normal 0.914208 -0.405245 0
    outer loop
      vertex 86.2593 31.8524 65.8
      vertex 86.314 31.9758 63
      vertex 86.314 31.9758 65.8
    endloop
  endfacet
  facet normal 0.914208 -0.405245 0
    outer loop
      vertex 86.314 31.9758 63
      vertex 86.2593 31.8524 65.8
      vertex 86.2593 31.8524 63
    endloop
  endfacet
  facet normal 0.985374 0.170403 0
    outer loop
      vertex 86.1028 30.2635 65.8
      vertex 86.0798 30.3965 63
      vertex 86.0798 30.3965 65.8
    endloop
  endfacet
  facet normal 0.985374 0.170403 0
    outer loop
      vertex 86.0798 30.3965 63
      vertex 86.1028 30.2635 65.8
      vertex 86.1028 30.2635 63
    endloop
  endfacet
  facet normal 0.93325 -0.359227 0
    outer loop
      vertex 86.2108 31.7264 65.8
      vertex 86.2593 31.8524 63
      vertex 86.2593 31.8524 65.8
    endloop
  endfacet
  facet normal 0.93325 -0.359227 0
    outer loop
      vertex 86.2593 31.8524 63
      vertex 86.2108 31.7264 65.8
      vertex 86.2108 31.7264 63
    endloop
  endfacet
  facet normal 0.44988 0.893089 -0
    outer loop
      vertex 87.6242 28.314 63
      vertex 87.5037 28.3747 65.8
      vertex 87.6242 28.314 65.8
    endloop
  endfacet
  facet normal 0.44988 0.893089 0
    outer loop
      vertex 87.5037 28.3747 65.8
      vertex 87.6242 28.314 63
      vertex 87.5037 28.3747 63
    endloop
  endfacet
  facet normal 0.757056 -0.65335 0
    outer loop
      vertex 86.6742 32.5446 65.8
      vertex 86.7624 32.6468 63
      vertex 86.7624 32.6468 65.8
    endloop
  endfacet
  facet normal 0.757056 -0.65335 0
    outer loop
      vertex 86.7624 32.6468 63
      vertex 86.6742 32.5446 65.8
      vertex 86.6742 32.5446 63
    endloop
  endfacet
  facet normal -0.0244552 -0.999701 0
    outer loop
      vertex 88.8 33.55 63
      vertex 88.9349 33.5467 65.8
      vertex 88.8 33.55 65.8
    endloop
  endfacet
  facet normal -0.0244552 -0.999701 -0
    outer loop
      vertex 88.9349 33.5467 65.8
      vertex 88.8 33.55 63
      vertex 88.9349 33.5467 63
    endloop
  endfacet
  facet normal 0.535581 -0.844484 0
    outer loop
      vertex 87.2722 33.0865 63
      vertex 87.3862 33.1588 65.8
      vertex 87.2722 33.0865 65.8
    endloop
  endfacet
  facet normal 0.535581 -0.844484 0
    outer loop
      vertex 87.3862 33.1588 65.8
      vertex 87.2722 33.0865 63
      vertex 87.3862 33.1588 63
    endloop
  endfacet
  facet normal 0.575548 -0.817768 0
    outer loop
      vertex 87.1618 33.0088 63
      vertex 87.2722 33.0865 65.8
      vertex 87.1618 33.0088 65.8
    endloop
  endfacet
  facet normal 0.575548 -0.817768 0
    outer loop
      vertex 87.2722 33.0865 65.8
      vertex 87.1618 33.0088 63
      vertex 87.2722 33.0865 63
    endloop
  endfacet
  facet normal 0.963783 -0.266689 0
    outer loop
      vertex 86.1324 31.4682 65.8
      vertex 86.1684 31.5983 63
      vertex 86.1684 31.5983 65.8
    endloop
  endfacet
  facet normal 0.963783 -0.266689 0
    outer loop
      vertex 86.1684 31.5983 63
      vertex 86.1324 31.4682 65.8
      vertex 86.1324 31.4682 63
    endloop
  endfacet
  facet normal 0.492545 0.870287 -0
    outer loop
      vertex 87.5037 28.3747 63
      vertex 87.3862 28.4412 65.8
      vertex 87.5037 28.3747 65.8
    endloop
  endfacet
  facet normal 0.492545 0.870287 0
    outer loop
      vertex 87.3862 28.4412 65.8
      vertex 87.5037 28.3747 63
      vertex 87.3862 28.4412 63
    endloop
  endfacet
  facet normal 0.122941 0.992414 -0
    outer loop
      vertex 88.5305 28.0632 63
      vertex 88.3965 28.0798 65.8
      vertex 88.5305 28.0632 65.8
    endloop
  endfacet
  facet normal 0.122941 0.992414 0
    outer loop
      vertex 88.3965 28.0798 65.8
      vertex 88.5305 28.0632 63
      vertex 88.3965 28.0798 63
    endloop
  endfacet
  facet normal 0.0733531 0.997306 -0
    outer loop
      vertex 88.6651 28.0533 63
      vertex 88.5305 28.0632 65.8
      vertex 88.6651 28.0533 65.8
    endloop
  endfacet
  facet normal 0.0733531 0.997306 0
    outer loop
      vertex 88.5305 28.0632 65.8
      vertex 88.6651 28.0533 63
      vertex 88.5305 28.0632 63
    endloop
  endfacet
  facet normal 0.170403 0.985374 -0
    outer loop
      vertex 88.3965 28.0798 63
      vertex 88.2635 28.1028 65.8
      vertex 88.3965 28.0798 65.8
    endloop
  endfacet
  facet normal 0.170403 0.985374 0
    outer loop
      vertex 88.2635 28.1028 65.8
      vertex 88.3965 28.0798 63
      vertex 88.2635 28.1028 63
    endloop
  endfacet
  facet normal 0.314226 -0.949348 0
    outer loop
      vertex 87.8736 33.3892 63
      vertex 88.0017 33.4316 65.8
      vertex 87.8736 33.3892 65.8
    endloop
  endfacet
  facet normal 0.314226 -0.949348 0
    outer loop
      vertex 88.0017 33.4316 65.8
      vertex 87.8736 33.3892 63
      vertex 88.0017 33.4316 63
    endloop
  endfacet
  facet normal 0.870287 -0.492545 0
    outer loop
      vertex 86.3747 32.0963 65.8
      vertex 86.4412 32.2138 63
      vertex 86.4412 32.2138 65.8
    endloop
  endfacet
  facet normal 0.870287 -0.492545 0
    outer loop
      vertex 86.4412 32.2138 63
      vertex 86.3747 32.0963 65.8
      vertex 86.3747 32.0963 63
    endloop
  endfacet
  facet normal -0.219283 -0.975661 0
    outer loop
      vertex 89.3365 33.4972 63
      vertex 89.4682 33.4676 65.8
      vertex 89.3365 33.4972 65.8
    endloop
  endfacet
  facet normal -0.219283 -0.975661 -0
    outer loop
      vertex 89.4682 33.4676 65.8
      vertex 89.3365 33.4972 63
      vertex 89.4682 33.4676 63
    endloop
  endfacet
  facet normal -0.266689 -0.963783 0
    outer loop
      vertex 89.4682 33.4676 63
      vertex 89.5983 33.4316 65.8
      vertex 89.4682 33.4676 65.8
    endloop
  endfacet
  facet normal -0.266689 -0.963783 -0
    outer loop
      vertex 89.5983 33.4316 65.8
      vertex 89.4682 33.4676 63
      vertex 89.5983 33.4316 63
    endloop
  endfacet
  facet normal 0.963783 0.266689 0
    outer loop
      vertex 86.1684 30.0017 65.8
      vertex 86.1324 30.1318 63
      vertex 86.1324 30.1318 65.8
    endloop
  endfacet
  facet normal 0.963783 0.266689 0
    outer loop
      vertex 86.1324 30.1318 63
      vertex 86.1684 30.0017 65.8
      vertex 86.1684 30.0017 63
    endloop
  endfacet
  facet normal 0.65335 0.757056 -0
    outer loop
      vertex 87.0554 28.6742 63
      vertex 86.9532 28.7624 65.8
      vertex 87.0554 28.6742 65.8
    endloop
  endfacet
  facet normal 0.65335 0.757056 0
    outer loop
      vertex 86.9532 28.7624 65.8
      vertex 87.0554 28.6742 63
      vertex 86.9532 28.7624 63
    endloop
  endfacet
  facet normal 0.405245 0.914208 -0
    outer loop
      vertex 87.7476 28.2593 63
      vertex 87.6242 28.314 65.8
      vertex 87.7476 28.2593 65.8
    endloop
  endfacet
  facet normal 0.405245 0.914208 0
    outer loop
      vertex 87.6242 28.314 65.8
      vertex 87.7476 28.2593 63
      vertex 87.6242 28.314 63
    endloop
  endfacet
  facet normal 0.44988 -0.893089 0
    outer loop
      vertex 87.5037 33.2253 63
      vertex 87.6242 33.286 65.8
      vertex 87.5037 33.2253 65.8
    endloop
  endfacet
  facet normal 0.44988 -0.893089 0
    outer loop
      vertex 87.6242 33.286 65.8
      vertex 87.5037 33.2253 63
      vertex 87.6242 33.286 63
    endloop
  endfacet
  facet normal 0.914208 0.405245 0
    outer loop
      vertex 86.314 29.6242 65.8
      vertex 86.2593 29.7476 63
      vertex 86.2593 29.7476 65.8
    endloop
  endfacet
  facet normal 0.914208 0.405245 0
    outer loop
      vertex 86.2593 29.7476 63
      vertex 86.314 29.6242 65.8
      vertex 86.314 29.6242 63
    endloop
  endfacet
  facet normal 0.575548 0.817768 -0
    outer loop
      vertex 87.2722 28.5135 63
      vertex 87.1618 28.5912 65.8
      vertex 87.2722 28.5135 65.8
    endloop
  endfacet
  facet normal 0.575548 0.817768 0
    outer loop
      vertex 87.1618 28.5912 65.8
      vertex 87.2722 28.5135 63
      vertex 87.1618 28.5912 63
    endloop
  endfacet
  facet normal 0.893089 0.44988 0
    outer loop
      vertex 86.3747 29.5037 65.8
      vertex 86.314 29.6242 63
      vertex 86.314 29.6242 65.8
    endloop
  endfacet
  facet normal 0.893089 0.44988 0
    outer loop
      vertex 86.314 29.6242 63
      vertex 86.3747 29.5037 65.8
      vertex 86.3747 29.5037 63
    endloop
  endfacet
endsolid OpenSCAD_Model
