<?xml version="1.0" encoding="UTF-8" standalone="no"?>
<!-- Created with Inkscape (http://www.inkscape.org/) -->

<svg
   width="210mm"
   height="297mm"
   viewBox="0 0 210 297"
   version="1.1"
   id="svg5"
   inkscape:version="1.1 (c4e8f9e, 2021-05-24)"
   sodipodi:docname="dw.svg"
   xmlns:inkscape="http://www.inkscape.org/namespaces/inkscape"
   xmlns:sodipodi="http://sodipodi.sourceforge.net/DTD/sodipodi-0.dtd"
   xmlns="http://www.w3.org/2000/svg"
   xmlns:svg="http://www.w3.org/2000/svg">
  <sodipodi:namedview
     id="namedview7"
     pagecolor="#ffffff"
     bordercolor="#666666"
     borderopacity="1.0"
     inkscape:pageshadow="2"
     inkscape:pageopacity="0.0"
     inkscape:pagecheckerboard="0"
     inkscape:document-units="mm"
     showgrid="false"
     inkscape:zoom="1.8973437"
     inkscape:cx="337.31369"
     inkscape:cy="430.60201"
     inkscape:window-width="1792"
     inkscape:window-height="1018"
     inkscape:window-x="0"
     inkscape:window-y="23"
     inkscape:window-maximized="1"
     inkscape:current-layer="layer1" />
  <defs
     id="defs2" />
  <g
     inkscape:label="Layer 1"
     inkscape:groupmode="layer"
     id="layer1">
    <path
       style="fill:#0c0c0c;stroke:none;stroke-width:0.264583"
       d="m 88.822693,120.07937 c -4.12766,-0.76623 -7.17741,1.58644 -8.4532,5.55625 -1.51011,4.699 0.68567,8.96752 5.54278,5.3549 1.06521,-0.79216 1.97459,-1.77324 2.91042,-2.70907 0.30189,1.06416 0.54822,2.18546 1.05727,3.17474 2.34501,4.55612 6.69502,0.71464 8.9969,-1.58724 0.11271,2.46327 1.581407,3.89996 3.968747,2.48365 2.3913,-1.4187 4.02722,-3.86874 5.82083,-5.92323 0.39582,1.65841 0.41698,3.38376 0.91017,5.02708 0.82602,2.75246 3.69781,4.08623 5.92005,1.82325 2.38786,-2.43152 2.46697,-6.57437 2.42914,-9.76075 -0.0127,-1.07685 0.003,-3.08768 -1.11258,-3.68141 -1.09299,-0.58155 -1.30439,0.82894 -1.14194,1.56501 0.6231,2.82734 0.73766,5.07788 -0.13599,7.93724 -0.2294,0.74983 -0.63183,2.30267 -1.57718,2.4421 -0.98875,0.14579 -1.31842,-1.50839 -1.47426,-2.17752 -0.36037,-1.54781 -0.0722,-6.89954 -1.73964,-7.50173 -1.21444,-0.43842 -2.09947,0.83423 -2.66356,1.68195 -1.62772,2.44634 -3.50705,5.03529 -6.02879,6.61353 -2.203077,-6.95165 4.42978,-7.74287 1.94858,-10.35985 -3.95443,-1.46229 -4.425077,5.84685 -6.646257,8.50777 -0.79851,0.95673 -2.73579,3.43191 -4.23783,2.4585 -1.43087,-0.9271 -1.49834,-4.25979 -0.90699,-5.6335 2.59318,-6.0243 6.86196,-13.28103 5.79331,-20.10834 -0.40375,-2.57995 -2.56884,-3.04077 -4.3688,-1.27291 -2.08491,2.04822 -2.96227,5.411 -3.71263,8.15208 -0.71491,2.61223 -1.09855,5.23214 -1.09855,7.9375 m 7.40833,-14.55208 c 0.8009,5.03131 -2.12884,11.4337 -4.23333,15.875 h -0.26458 c 0.0135,-4.92654 1.2528,-11.7184 3.96875,-15.875 h 0.52916 m -8.43988,17.07278 c 0.69725,3.0072 -1.65384,7.34109 -5.65275,7.78373 -0.2484,-4.53862 1.73577,-7.38262 5.65275,-7.78373 z"
       id="path21"
       sodipodi:nodetypes="csccccscccccccscccccccccccccccccccc" />
  </g>
</svg>
